<?xml version="1.0" standalone="no"?>
<!DOCTYPE svg PUBLIC "-//W3C//DTD SVG 1.1//EN" "http://www.w3.org/Graphics/SVG/1.1/DTD/svg11.dtd" >
<!--
2013-9-30: Created.
-->
<svg>
<metadata>
Created by iconfont
</metadata>
<defs>

<font id="iconfont" horiz-adv-x="1024" >
  <font-face
    font-family="iconfont"
    font-weight="500"
    font-stretch="normal"
    units-per-em="1024"
    ascent="896"
    descent="-128"
  />
    <missing-glyph />
    
    <glyph glyph-name="jiantou_zuoyouqiehuan" unicode="&#59115;" d="M790.784 343.04l1.792-0.725333H896l-85.333333-82.858667-0.469334 0.042667-132.949333-132.992-51.498667 51.285333 81.536 81.706667H128v82.773333l662.016 0.042667 0.768 0.725333zM347.306667 682.666667l51.370666-51.626667L317.013333 549.418667H896v-82.858667H234.154667l-0.426667-0.426667-0.981333 0.426667H128l85.333333 82.816 0.64 0.042667L347.306667 682.666667z"  horiz-adv-x="1024" />

    
    <glyph glyph-name="qiye" unicode="&#59093;" d="M703.59166419 560.5750202500001v-540.4697284h-91.13549432v827.20995556c0 13.72210569-12.94538272 23.69005037-26.14967307 20.19479704L71.85698765 733.91369482c-9.19122173-2.33016889-15.66391309-10.74466765-15.66391308-20.19479704v-763.90703408c0-11.52139061 9.32067555-20.84206617 20.84206618-20.84206617h871.87152592c11.52139061 0 20.84206617 9.32067555 20.84206616 20.84206617V512.67710419c0 9.83849086-6.86105283 18.38244347-16.57008986 20.4537047l-224.34348247 47.89791605c-12.94538272 2.71853037-25.2434963-7.1199605-25.24349631-20.45370469zM504.23277037 259.98323358000005c0-11.3919368-9.19122173-20.58315852-20.58315852-20.58315852H208.94859061c-11.3919368 0-20.58315852 9.19122173-20.58315851 20.58315852v49.96917728c0 11.3919368 9.19122173 20.58315852 20.58315851 20.58315853h274.70102124c11.3919368 0 20.58315852-9.19122173 20.58315852-20.58315853v-49.96917728z m0 252.56441679c0-11.3919368-9.19122173-20.58315852-20.58315852-20.58315852H208.94859061c-11.3919368 0-20.58315852 9.19122173-20.58315851 20.58315852v49.96917728c0 11.3919368 9.19122173 20.58315852 20.58315851 20.58315852h274.70102124c11.3919368 0 20.58315852-9.19122173 20.58315852-20.58315852v-49.96917728z"  horiz-adv-x="1024" />

    
    <glyph glyph-name="shoujihuchu" unicode="&#59091;" d="M0 384a512 512 0 1 1 1024 0 512 512 0 1 1-1024 0zM661.487874 667.011024a64.987717 64.987717 0 0 0 63.778268-66.116536V127.51621999999998a64.987717 64.987717 0 0 0-63.778268-66.116535H356.868031a64.987717 64.987717 0 0 0-63.939527 66.116535V601.055748a64.987717 64.987717 0 0 0 63.939527 65.955276zM514.499528 179.84503900000004a28.301102 28.301102 0 1 1 28.381732-28.301102 28.220472 28.220472 0 0 1-28.381732 28.301102zM471.0676532 350.1813605V445.47894813c0 8.45466051 3.34011199 16.80494113 13.15169328 16.80494113h130.99504101c9.8115813 0 13.04731466 2.71384155 13.04731465 11.16850206v56.05126373c0 13.46482914 20.87570346 14.50861405 31.31355518 5.01016863l146.12992678-125.25422204a13.98672095 13.98672095 0 0 0 0-20.87570345l-146.12992678-124.62795159c-11.16850207-9.49844544-31.31355518-5.42768311-31.31355518 8.03714603l2.08756983 51.56298821a14.7173713 14.7173713 0 0 1-15.03050587 15.76115622H484.42810372c-9.18530957 0.62627172-13.15169328 3.4444906-13.15169457 11.89915111zM724.08118287 478.98445175l81.72837986-70.45550044a13.98672095 13.98672095 0 0 0 0-20.87570346l-81.83275849-69.62047149M615.52752335 461.86637477c9.8115813 0 13.04731466 2.71384155 13.04731465 11.16850208M471.0676532 350.1813605V445.47894813"  horiz-adv-x="1024" />

    
    <glyph glyph-name="shoujihuru" unicode="&#59092;" d="M0 384a512 512 0 1 1 1024 0 512 512 0 1 1-1024 0zM661.487874 667.011024a64.987717 64.987717 0 0 0 63.778268-66.116536V127.51621999999998a64.987717 64.987717 0 0 0-63.778268-66.116535H356.868031a64.987717 64.987717 0 0 0-63.939527 66.116535V601.055748a64.987717 64.987717 0 0 0 63.939527 65.955276zM514.499528 179.84503900000004a28.301102 28.301102 0 1 1 28.381732-28.301102 28.220472 28.220472 0 0 1-28.381732 28.301102zM777.96756685 443.69146554v-89.3414884c0-7.92624423-3.13135499-15.75463231-12.32971244-15.7546323H642.83000226c-9.19835747 0-12.23185749-2.64208142-12.32971245-10.4704707v-52.64591591c0-12.62327732-19.57097199-13.60182567-29.35645798-4.59917812l-136.99680636 117.42583436a13.11255089 13.11255089 0 0 0 0 19.57097199l136.99680636 116.83870462c10.47047069 8.9047926 29.35645798 5.18630787 29.35645798-7.43696945l-1.95709672-48.34030145a13.69968063 13.69968063 0 0 1 14.09110047-14.77608395h122.70999597c8.61122772-0.58712974 12.32971245-3.22920994 12.2318575-11.05760043zM728.15944227 454.84691971l68.49840318-1.17425826c8.61122772-0.58712974 12.32971245-3.22920994 12.23185749-11.05759923v-89.43934334c0-7.82838928-3.13135499-15.75463231-12.32971246-15.65677857l-68.49840317 1.17425827"  horiz-adv-x="1024" />

    
    <glyph glyph-name="suo" unicode="&#59090;" d="M512 896a292.571429 292.571429 0 0 0 292.571429-292.571429v-73.142857h73.142857a73.142857 73.142857 0 0 0 73.142857-73.142857v-512a73.142857 73.142857 0 0 0-73.142857-73.142857H146.285714a73.142857 73.142857 0 0 0-73.142857 73.142857V457.142857a73.142857 73.142857 0 0 0 73.142857 73.142857h73.142857V603.428571a292.571429 292.571429 0 0 0 292.571429 292.571429z m0-548.571429a109.714286 109.714286 0 0 1-36.571429-213.211428v-72.045714c0-4.022857 3.291429-7.314286 7.314286-7.314286h58.514286a7.314286 7.314286 0 0 1 7.314286 7.314286v72.082285A109.750857 109.750857 0 0 1 512 347.428571z m0 438.857143a182.857143 182.857143 0 0 1-182.674286-174.921143L329.142857 603.428571v-73.142857h365.714286V603.428571a182.857143 182.857143 0 0 1-182.857143 182.857143z"  horiz-adv-x="1024" />

    
    <glyph glyph-name="paixushang" unicode="&#59024;" d="M222.76714533 20.489950590000035h1570.57169676c107.96626055 0 133.77694482 62.41799443 57.35707558 138.83786282L1146.89085692 863.13287501a196.86972833 196.86972833 0 0 1-277.67572647 0L165.41006974 158.48432706000006c-76.41986836-75.57638203-50.60918497-137.99437646 57.35707559-137.99437647z"  horiz-adv-x="2017" />

    
    <glyph glyph-name="paixuxia" unicode="&#59089;" d="M1804.72007336 758.50449385H234.1483766c-107.96626055 0-133.77694482-62.41799443-57.35707561-138.83786282l703.80506073-703.8050616a196.86972833 196.86972833 0 0 1 277.67572648 0l704.64854708 703.8050616c75.57638203 76.41986836 50.60918497 138.83786279-58.20056192 138.83786282z"  horiz-adv-x="2018" />

    
    <glyph glyph-name="qunyunying1" unicode="&#59058;" d="M1049.076 176.471a361.667 361.667 0 0 1-97.02 97.021 505.153 505.153 0 0 1-131.351 65.105l-59.54 21.993 49.885 40.9A254.79 254.79 0 0 1 682.448 863.262Q672.525 864 662.333 864a252.443 252.443 0 0 1-172.854-68.123 254.79 254.79 0 0 1 25.345-394.52l50.086-40.901-59.607-22.06a508.439 508.439 0 0 1-131.284-64.904 363.209 363.209 0 0 1-97.49-97.021 213.688 213.688 0 0 1-38.085-118.075c0-37.615 11.13-67.05 34.062-90.852 57.126-58.602 178.42-63.43 308.429-63.43h123.64c146.772-0.603 285.43-1.14 347.988 63.095 22.998 23.534 34.128 53.64 34.128 91.053a214.56 214.56 0 0 1-37.883 118.008zM336.069 329.278a562.347 562.347 0 0 0 97.691 54.243 320.766 320.766 0 0 0-57.797 372.126 210.067 210.067 0 0 1-133.429-381.11 395.594 395.594 0 0 1-101.379-50.221 288.314 288.314 0 0 1-77.308-77.174 179.76 179.76 0 0 1-31.782-99.234 115.393 115.393 0 0 1 31.983-83.678c26.15-26.82 65.172-40.23 111.437-46.935a227.97 227.97 0 0 0-3.822 41.973 279.464 279.464 0 0 0 49.147 154.885A429.655 429.655 0 0 0 336.07 329.278z m925.69-82.136a288.314 288.314 0 0 1-77.309 77.107 395.594 395.594 0 0 1-101.38 50.287 210.067 210.067 0 0 1-133.361 380.91 320.766 320.766 0 0 0-57.797-372.126 562.347 562.347 0 0 0 97.691-54.244 429.655 429.655 0 0 0 115.259-114.99 279.464 279.464 0 0 0 49.147-154.885 227.97 227.97 0 0 0-3.821-41.973c46.264 6.705 85.287 20.115 111.436 46.935a115.393 115.393 0 0 1 31.983 83.678 179.76 179.76 0 0 1-31.849 99.3z"  horiz-adv-x="1345" />

    
    <glyph glyph-name="shangpindingdan" unicode="&#59050;" d="M943.13547406 715.90289719c0 81.94205156-64.65152719 148.09710281-143.58653156 148.09710281H223.699295A146.5184025 146.5184025 0 0 1 80.11276438 715.90289719L32 52.097102810000024c0-81.94205156 64.65152719-148.09710281 143.58653062-148.09710281h672.07517626a146.14252125 146.14252125 0 0 1 144.33829312 148.09710281c-10.5246675 144.33829313-18.04228687 252.5920125-23.30462062 324.76115906-6.01409531 74.42443219-14.28347719 187.94048531-25.55990532 339.04463532z m-172.90524656-33.07752563a232.1440875 232.1440875 0 0 0-72.92090906-169.14643687 257.17776 257.17776 0 0 0-352.57635094 0 232.1440875 232.1440875 0 0 0-72.92090812 169.14643687V683.5771340599999h61.11824625v-0.7517625c0-99.23257594 84.64839469-180.42286594 187.94048531-180.42286593s187.94048531 81.19029 187.94048531 180.42286593V683.5771340599999l61.11824625-0.7517625z"  horiz-adv-x="1024" />

    
    <glyph glyph-name="gongzuoshouji1" unicode="&#59088;" d="M963.765 112.941v-120.47c0-66.26-54.212-120.471-120.47-120.471H240.94c-66.259 0-120.47 54.212-120.47 120.47V112.942h843.294zM120.47 775.53C120.47 841.79 174.682 896 240.94 896h602.353c66.259 0 120.47-54.212 120.47-120.47v-602.354H120.472V775.53z m421.647-843.294c36.14 0 60.235 24.094 60.235 60.236s-24.094 60.235-60.235 60.235-60.236-24.094-60.236-60.235 24.094-60.236 60.236-60.236z"  horiz-adv-x="1084" />

    
    <glyph glyph-name="yingxiaohuodong" unicode="&#59087;" d="M925.551841 652.636689h-74.346589c18.586398 18.586398 27.879597 41.818896 32.526695 69.69949 9.293199 46.465994-9.294197 97.579087-41.819894 130.105782C790.79896 898.908954 716.452371 908.202153 656.045081 880.321558c-32.526695-13.939299-55.760191-41.818896-69.69949-69.699491L512 657.282789 437.653411 805.975967c-13.939299 23.232498-32.526695 46.465994-55.759193 60.406292-69.69949 41.818896-148.693178 32.526695-199.806271-13.940298-37.172795-37.172795-55.759193-83.639788-46.465994-130.105782 4.6461-27.879597 18.586398-51.113093 37.172795-69.69949H98.448159c-41.818896 0-74.345591-32.526695-74.34559-69.700489V443.538218c0-37.172795 32.526695-69.69949 74.34559-69.699491h339.205252c18.586398 0 37.173794 13.940297 37.173794 37.172795V550.410503c0 18.586398 13.939299 32.525697 32.525696 37.172796 18.587396 4.647099 41.819894-9.294197 41.819894-27.879597v-148.693178c0-18.586398 18.587396-37.172795 37.173794-37.172795h339.205252c41.818896 0 74.345591 32.526695 74.34559 69.69949V582.9362c4.647099 37.173794-32.526695 69.700489-74.34559 69.700489z m-613.357114 0L256.434536 675.869187c-23.233496 9.294197-41.818896 32.526695-46.465994 55.760191-4.647099 27.879597 4.6461 51.113093 23.232498 69.699491 18.586398 18.586398 46.466992 27.879597 74.346589 23.233496 23.233496-4.647099 46.465994-23.233496 60.40729-46.466993l65.052392-125.458683H312.194727z m501.836731 78.992689c-4.6461-23.233496-23.232498-46.466992-46.465994-55.760191l-55.760191-23.232498H595.639788l65.052392 125.458683c9.294197 23.233496 32.526695 37.173794 60.40729 41.819894 23.232498 4.647099 51.113093 0 69.69949-18.586397 18.586398-18.586398 27.879597-41.818896 23.232498-69.699491zM437.653411 299.49114H135.621953c-18.586398 0-37.173794-13.939299-37.173794-37.172796v-320.618854c0-37.172795 32.526695-69.69949 74.346589-69.69949h264.859661c18.585399 0 37.172795 13.940297 37.172796 37.172795V262.318344c0 18.586398-18.587396 37.172795-37.173794 37.172796z m450.724636 0H586.346589c-18.586398 0-37.173794-13.939299-37.173794-37.172796v-353.145549c0-18.586398 18.587396-37.172795 37.173794-37.172795h264.858663c41.818896 0 74.346589 32.526695 74.346589 69.69949V262.318344c0 18.586398-13.940297 37.172795-37.173794 37.172796z m0 0"  horiz-adv-x="1024" />

    
    <glyph glyph-name="xitongshezhi2" unicode="&#59086;" d="M432.8-20v-108H218.4V-20h214.4z m401.6 646.4c0-81.6 65.6-148 144.8-148 21.6 0 50.4 7.2 72.8 22.4l80-125.6c-72.8-36.8-94.4-125.6-58.4-192 14.4-22.4 36-44.8 58.4-52l-80-132.8c-72.8 44-160 14.4-203.2-52-14.4-22.4-21.6-52-21.6-73.6h-152c0 81.6-65.6 148-144.8 148-28.8 0-50.4-7.2-72.8-29.6l-80 132.8c72.8 44.8 101.6 132.8 58.4 200-14.4 22.4-36 36.8-58.4 52l80 132.8c72.8-44 160-14.4 203.2 44.8 14.4 22.4 21.6 52 21.6 73.6h152zM1041.6 896c21.6 0 36-14.4 36-36.8v-284.8H967.2l-76 150.4-259.2-0.8-76.8-110.4L393.6 624 254.4 383.20000000000005 327.2 252 304 88.79999999999995v-3.2H36c-21.6 0-36 26.4-36 48V859.2C0 881.6 14.4 896 36 896h1005.6zM754.4 412c-87.2 0-160-73.6-160-155.2 0-88.8 72.8-155.2 160-155.2s160 66.4 160 148c0 88.8-72.8 155.2-160 162.4z"  horiz-adv-x="1132" />

    
    <glyph glyph-name="kehuguanli2" unicode="&#59085;" d="M588.987209 301.090015v-294.822648a40.801349 40.801349 0 0 1 17.768329-34.878572l102.661458-62.518196c7.238949-5.26469 4.606604-17.110243 0-17.110243q-526.469014-4.606604-612.678315-3.290431c-58.569678 0-90.157819 35.536658-94.106336 103.319544 0 155.308359 197.42588 356.682757 323.120357 356.682757l230.98828-5.26469a40.143262 40.143262 0 0 0 32.246227-42.117521z m-182.289896 592.27764a263.234507 263.234507 0 1 0-227.039762-229.014021A263.234507 263.234507 0 0 0 406.697313 893.367655z m553.450551-460.660387l184.264155-105.951889a73.705662 73.705662 0 0 0 37.510917-65.808627v-208.613346a71.073317 71.073317 0 0 0-37.510917-65.808627l-182.947983-104.635717a72.389489 72.389489 0 0 0-73.047575 0l-182.947983 104.635717a74.363748 74.363748 0 0 0-37.510917 65.808627V262.262925a70.415231 70.415231 0 0 0 37.510917 65.808626l181.63181 105.951889a79.628438 79.628438 0 0 0 73.047576-2.632345z m-50.014557-360.631274a86.867387 86.867387 0 0 1 100.029113 100.687198 88.841646 88.841646 0 0 1-69.757144 71.731404 86.867387 86.867387 0 0 1-100.029113-100.029113 88.18356 88.18356 0 0 1 69.757144-72.389489z"  horiz-adv-x="1185" />

    
    <glyph glyph-name="kehugenjin" unicode="&#59041;" d="M512 521.184375c-75.455625 0-137.184375-61.72875-137.184375-137.184375 0-75.455625 61.72875-137.184375 137.184375-137.184375 75.455625 0 137.184375 61.72875 137.184375 137.184375 0 75.455625-61.72875 137.184375-137.184375 137.184375M512 164.54437499999995c-123.455625 0-219.455625 96-219.455625 219.455625S388.544375 603.455625 512 603.455625 731.455625 507.455625 731.455625 384 635.455625 164.54437499999995 512 164.54437499999995m404.544375 294.91125h-6.815625C882.27125 624 752 754.27125 587.4546875 781.7278125v6.815625C587.455625 829.72875 553.184375 864 512 864c-41.184375 0-75.455625-34.2721875-75.455625-75.455625v-6.815625C272 754.27125 141.72875 624 114.2721875 459.4546875h-6.815625C66.27125 459.455625 32 425.184375 32 384c0-41.184375 34.2721875-75.455625 75.455625-75.455625h6.815625C141.72875 144 272 13.728749999999991 436.5453125-13.727812500000027v-6.815625c0-41.184375 34.27125-75.4565625 75.455625-75.4565625 41.184375 0 75.455625 34.2721875 75.455625 75.455625v6.815625C752 13.728749999999991 882.27125 144 909.7278125 308.5453125h6.815625c41.184375 0 75.4565625 34.27125 75.4565625 75.455625 0 41.184375-34.2721875 75.455625-75.455625 75.455625"  horiz-adv-x="1024" />

    
    <glyph glyph-name="kehuyinliu1" unicode="&#59027;" d="M825.089202 581.107981v-442.29108c0-86.535211-63.098592-140.619718-130.403756-114.779342a101.558685 101.558685 0 0 0-64.300469 85.934272 367.774648 367.774648 0 0 0 0 51.680751V566.084507a245.183099 245.183099 0 0 1-188.694836 253.596244c-116.58216 19.230047-240.375587-31.849765-260.807512-252.394366V451.305164h120.187794c39.661972 0 15.023474 88.938967 15.624413 100.356808 12.619718 123.793427 68.507042 139.41784 114.779342 123.793427a110.57277 110.57277 0 0 0 69.107982-114.178404v-425.464788a240.375587 240.375587 0 0 1 193.502347-256.600939 227.15493 227.15493 0 0 1 254.798122 219.342723c6.00939 162.85446 0 265.615023 3.004695 429.070422 0 83.530516 0 82.929577 74.516432 84.131456 18.028169 0 42.065728-12.018779 51.079812 16.826291a76.920188 76.920188 0 0 1-17.42723 75.718309c-44.469484 54.685446-88.338028 110.57277-132.807512 165.258216-28.244131 34.85446-53.483568 35.455399-81.727699 0-45.070423-55.286385-90.140845-111.173709-134.610329-168.26291a91.943662 91.943662 0 0 1-17.42723-39.061033c-6.610329-37.258216 6.00939-53.483568 40.262911-53.483568h77.521127a38.460094 38.460094 0 0 0 9.615023-4.206573c3.004695-7.812207 4.206573-15.624413 4.206573-23.43662zM199.511737-125.596244l167.661972 15.624413a43.868545 43.868545 0 0 1 38.460094 24.037559 112.976526 112.976526 0 0 1 0 114.178403 87.13615 87.13615 0 0 1-51.079812 31.248827 519.211268 519.211268 0 0 0-60.093897 19.230047c-36.657277 15.624413-39.061033 40.86385-12.619718 66.704225a95.549296 95.549296 0 0 1 36.657277 80.525822 283.042254 283.042254 0 0 1-12.01878 66.704225 105.765258 105.765258 0 0 1-124.995305 57.089202c-48.075117-12.619718-83.530516-34.85446-89.539906-78.122066a120.187793 120.187793 0 0 1 13.220657-106.967136 108.769953 108.769953 0 0 1 17.42723-19.830986c28.84507-23.43662 23.43662-53.483568-14.422535-67.305164-17.42723-6.610329-36.657277-10.215962-54.685446-15.624413-42.666667-12.619718-66.103286-128.600939-43.267606-159.248827a60.093897 60.093897 0 0 1 33.051644-14.422535c52.28169-6.00939 105.765258-10.816901 157.446009-16.225352z"  horiz-adv-x="1083" />

    
    <glyph glyph-name="liebianhuoke" unicode="&#59083;" d="M830.578 201.956a136.533 136.533 0 0 1-82.83-28.217l-106.952 106.95a159.289 159.289 0 0 1-67.128 223.46l38.912 64.626a136.533 136.533 0 1 1-109 133.803 136.533 136.533 0 0 1 47.56-103.31l-47.104-78.735a157.924 157.924 0 0 1-96.712-33.223l-65.08 53.476A113.778 113.778 0 0 1 352.71 588.8a114.916 114.916 0 1 1-57.344-98.304l68.267-55.296a157.24 157.24 0 0 1-5.917-135.396l-91.022-91.022a136.533 136.533 0 1 1 40.505-97.849 143.588 143.588 0 0 1-5.234 37.32l94.89 95.118a159.289 159.289 0 0 1 197.52-12.743L705.421 119.58a134.258 134.258 0 0 1-11.378-54.158 136.533 136.533 0 1 1 136.534 136.534z"  horiz-adv-x="1024" />

    
    <glyph glyph-name="xiaoshouguanlisvg" unicode="&#59082;" d="M286.72 632.03555555A225.28 225.28 0 1 1 512 857.11055555 225.178 225.178 0 0 1 286.72 632.03555555z m0 0M593.32266667 400.3475911L512 319.02492443999995l-81.32266667 81.32266666A513.26634667 513.26634667 0 0 1 30.54023111 70.06890667000005c-31.17738667-85.32992 31.73717333-175.7184 122.61376-175.7184h717.69201778c90.87658667 0 153.79114667 90.38848 122.54321778 175.7184a513.26634667 513.26634667 0 0 1-400.06542222 330.27868443zM512-32.45852445000003l-87.73063111 87.73176889L512 318.58232889l87.73063111-263.51957334z m0 0"  horiz-adv-x="1024" />

    
    <glyph glyph-name="shujutongji1" unicode="&#59081;" d="M543.66533469 443.22444188L237.95440625 608.48883656 45.61598094 453.94124531c-32.71445344-25.38190406-2.82021188-84.04230281 50.76380719-56.40423l152.85546468 122.96122219 294.43008188-165.82843687 350.83431281 314.73560437-50.76380719 49.63572281M289.28225656 380.05170375L88.48319656 219.2996475v-315.2996475h274.12455938v428.67215062l-73.32549938 47.37955313zM453.41856594 300.52173938v-396.52173938h229.00117593V335.49236155999995l-106.60399593-110.55229125-122.39718 75.58166906zM773.23055188 380.05170375v-476.05170375H1047.35511125V380.05170375l-122.39717906 143.83078781-151.72738032-143.83078781zM781.69118656 781.08578156l62.04465375-60.35252625L951.46791969 615.82138688 1047.35511125 864l-265.66392469-82.91421844z"  horiz-adv-x="1083" />

    
    <glyph glyph-name="shouji1" unicode="&#59080;" d="M5.34755555 383.20355555000003c0-280.46222222 227.328-507.904 507.79022223-507.904s507.904 227.328 507.904 507.79022223v0.11377777c0 280.46222222-227.328 507.904-507.79022223 507.904S5.34755555 663.7795555499999 5.34755555 383.20355555000003c0 0.11377778 0 0 0 0zM661.61777778 682.78044445c34.92977778 0 63.26044445-29.35466667 63.26044444-65.536v-469.90222223c0-36.18133333-28.33066667-65.536-63.26044444-65.536H359.31022222c-34.92977778 0-63.26044445 29.35466667-63.26044444 65.536V617.24444445c0 36.18133333 28.33066667 65.536 63.26044444 65.536h302.30755556zM510.52088889 271.24622222000005c-21.39022222 0-38.68444445-17.97688889-38.68444444-40.04977777s17.29422222-40.04977778 38.68444444-40.04977778 38.68444445 17.97688889 38.68444444 40.04977778-17.408 40.04977778-38.68444444 40.04977777z m0 0"  horiz-adv-x="1024" />

    
    <glyph glyph-name="weixin1" unicode="&#59128;" d="M577.864691 387.274272c-11.504198 0-23.033679-10.695111-23.033679-23.855408 0-10.695111 11.51684-21.390222 23.033679-21.390222 17.28158 0 29.620148 10.695111 29.620149 21.390222 0 13.160296-12.338568 23.855407-29.620149 23.855408z m-75.674864 111.059753c18.090667 0 29.607506 11.504198 29.607506 28.785777 0 18.103309-11.504198 28.79842-29.607506 28.79842-17.28158 0-33.72879-10.695111-33.72879-28.79842 0-17.28158 16.44721-28.785778 33.72879-28.785777zM511.22884 891.77758C232.372148 891.77758 6.320988 665.713778 6.320988 386.857086c0-278.856691 226.05116-504.907852 504.920493-504.907851 278.844049 0 504.907852 226.05116 504.907852 504.920493 0 278.844049-226.063802 504.907852-504.920493 504.907852z m-95.42163-632.832c-30.441877 0-52.653827 4.93037-81.439605 13.147655l-83.083062-41.946075 23.855408 70.744494c-58.405926 41.136988-92.956444 92.956444-92.956445 156.305383 0 111.881481 105.295012 197.429728 233.623704 197.429728 113.524938 0 214.711309-67.45758 234.458074-162.879209a114.030617 114.030617 0 0 1-22.211951 2.465185c-111.881481 0-198.251457-83.90479-198.251456-185.091161 0-17.268938 2.465185-32.907062 6.573827-49.354271-6.573827-0.821728-13.982025-0.821728-20.568494-0.821729z m343.04-80.617876l16.459852-59.240297-62.52721 35.372247c-23.855407-4.93037-46.889086-12.338568-70.744494-12.338568-110.238025 0-197.429728 75.687506-197.429728 169.465679 0 93.778173 87.191704 169.465679 197.429728 169.465679 104.473284 0 198.251457-75.687506 198.251457-169.465679 0-52.641185-35.372247-99.530272-81.439605-133.259061zM339.310617 555.918222c-17.268938 0-35.372247-10.695111-35.372247-28.79842 0-17.268938 18.103309-28.79842 35.372247-28.798419 16.459852 0 29.620148 11.529481 29.620148 28.798419 0 18.103309-13.160296 28.79842-29.620148 28.79842z m367.729778-168.64395c-12.338568 0-23.033679-10.695111-23.033679-23.855408 0-10.695111 10.695111-21.390222 23.033679-21.390222 16.44721 0 28.785778 10.695111 28.785778 21.390222 0 13.160296-12.338568 23.855407-28.785778 23.855408z"  horiz-adv-x="1024" />

    
    <glyph glyph-name="duihao1" unicode="&#59079;" d="M416.832 97.91999999999996c-16.192 0-32.32 6.208-44.672 18.56L119.424 370.24c-24.64 24.768-24.64 64.96 0 89.728 24.704 24.768 64.704 24.768 89.344 0l208.064-208.896L814.4 650.24c24.64 24.832 64.64 24.832 89.344 0 24.64-24.768 24.64-64.896 0-89.664L461.504 116.48000000000002c-12.352-12.352-28.544-18.56-44.672-18.56z"  horiz-adv-x="1024" />

    
    <glyph glyph-name="zu" unicode="&#59078;" d="M512 384H0A512 512 0 1 1 512 896 512 512 0 0 1 0 384zM273.8176 247.21408c61.31712 13.94688 70.36928 16.384 81.5104 31.70304s12.288 22.09792 4.52608 67.93216c-0.59392 5.98016-14.60224 71.10656 165.29408 74.71104 136.62208-2.048 141.88544-47.104 145.408-76.22656-0.73728-21.4016-8.56064-38.4 8.06912-58.71616 7.72096-9.29792 26.23488-25.64096 92.42624-35.98336 46.03904-8.62208 51.97824-7.08608 64.69632 5.16096a125.68576 125.68576 0 0 1 30.43328 75.30496 86.28224 86.28224 0 0 1-19.57888 76.86144c-21.25824 25.82528-96.50176 110.03904-308.8384 120.34048s-366.85824-96.256-380.76416-173.42464a138.6496 138.6496 0 0 1 28.44672-101.0688c11.28448-16.15872 26.99264-20.48 88.30976-6.59456z"  horiz-adv-x="1024" />

    
    <glyph glyph-name="zu-copy" unicode="&#60853;" d="M512 384H0A512 512 0 1 1 512 896 512 512 0 0 1 0 384zM755.80930847 290.96852807000005c-53.21968478 33.49581793-61.34383258 38.17335757-80.05399114 35.21912201s-24.31451721-6.93666095-51.23571286-44.83486913c-3.80864683-4.64857655-39.95458784-60.60527369-169.70924787 64.05188184-95.15824454 98.05455392-67.02059895 133.6357146-48.91866536 156.71930032 15.65455218 14.6118808 33.20618699 21.0996138 35.81286543 47.22432437 1.11507911 12.03416546-0.41996486 36.68175824-39.91114319 90.79929893-26.45778615 38.65124862-31.74355076 41.7647812-49.39655641 42.09785678a125.68576 125.68576 0 0 1-74.76822653-31.72906921 86.28224 86.28224 0 0 1-40.50488662-68.19360425c-3.22938495-33.29307627-9.57230249-146.04640027 133.28815747-303.47529639s327.47121957-191.34467891 391.87065854-146.6111806a138.6496 138.6496 0 0 1 51.35156523 91.58130246c3.44660816 19.40527282-4.60513191 33.56822566-57.78137205 67.10748823z"  horiz-adv-x="1024" />

    
    <glyph glyph-name="tabAdd" unicode="&#59073;" d="M874.667 810.667a64 64 0 0 0 64-64v-725.334a64 64 0 0 0-64-64H149.333a64 64 0 0 0-64 64V746.667a64 64 0 0 0 64 64h725.334z m0-64H149.333v-725.334h725.334V746.667zM512 629.3330000000001a32 32 0 0 0 31.85-28.928l0.15-3.072V416h181.333a32 32 0 0 0 31.851-28.928l0.15-3.072a32 32 0 0 0-28.929-31.85l-3.072-0.15H544v-181.333a32 32 0 0 0-63.85-3.072l-0.15 3.072V352H298.667a32 32 0 0 0-31.851 28.928l-0.15 3.072a32 32 0 0 0 28.929 31.85l3.072 0.15H480V597.3330000000001a32 32 0 0 0 32 32z"  horiz-adv-x="1024" />

    
    <glyph glyph-name="load" unicode="&#59084;" d="M284.401822 68.92307700000003a72.467692 72.467692 0 0 0-23.236924-53.956923 78.769231 78.769231 0 0 0-111.064615 0 73.649231 73.649231 0 0 0 0 107.126154 78.769231 78.769231 0 0 0 55.926154 22.055384 78.769231 78.769231 0 0 0 55.532308-22.055384A72.073846 72.073846 0 0 0 284.401822 68.92307700000003zM590.814129-51.98769200000004a72.467692 72.467692 0 0 0-23.236923-53.956923 81.132308 81.132308 0 0 0-111.064615 0 73.649231 73.649231 0 0 0 0 107.52 81.132308 81.132308 0 0 0 111.064615 0 72.073846 72.073846 0 0 0 23.236923-53.563077zM157.58336 365.09538499999996a71.68 71.68 0 0 0-23.236923-53.563077 78.769231 78.769231 0 0 0-55.532308-22.449231 78.769231 78.769231 0 0 0-55.532307 22.449231 73.255385 73.255385 0 0 0 0 107.126154A76.406154 76.406154 0 0 0 78.814129 440.713846a76.406154 76.406154 0 0 0 55.532308-22.055384A72.073846 72.073846 0 0 0 157.58336 365.09538499999996zM897.226437 68.92307700000003a72.073846 72.073846 0 0 0-23.236923-53.563077 78.769231 78.769231 0 0 0-111.064616 0 73.649231 73.649231 0 0 0 0 107.52 78.769231 78.769231 0 0 0 55.532308 22.055385 78.769231 78.769231 0 0 0 55.926154-22.055385 71.68 71.68 0 0 0 22.843077-53.956923zM304.094129 659.692308A89.796923 89.796923 0 0 0 275.737206 593.132308a96.492308 96.492308 0 0 0-69.316923-27.963077 97.28 97.28 0 0 0-69.710769 27.963077A89.403077 89.403077 0 0 0 107.171052 659.692308a89.403077 89.403077 0 0 0 28.75077 66.953846 97.28 97.28 0 0 0 69.710769 27.963077 96.492308 96.492308 0 0 0 70.104615-27.569231A89.796923 89.796923 0 0 0 304.094129 659.692308zM1024.044898 365.09538499999996a71.68 71.68 0 0 0-23.236923-53.563077 78.769231 78.769231 0 0 0-111.064615 0 73.255385 73.255385 0 0 0 0 107.126154 81.132308 81.132308 0 0 0 111.064615 0 72.073846 72.073846 0 0 0 23.236923-53.563077zM630.198745 782.178462a107.913846 107.913846 0 0 0-34.658462-80.738462 122.092308 122.092308 0 0 0-166.990769 0A107.913846 107.913846 0 0 0 393.891052 782.178462a107.126154 107.126154 0 0 0 34.658462 80.738461 122.092308 122.092308 0 0 0 166.990769 0A107.126154 107.126154 0 0 0 630.198745 782.178462zM956.30336 659.692308a124.061538 124.061538 0 0 0-39.384615-93.735385 141.390769 141.390769 0 0 0-194.953847 0 125.243077 125.243077 0 0 0-39.384615 93.735385 126.424615 126.424615 0 0 0 39.384615 93.735384 141.390769 141.390769 0 0 0 194.953847 0 125.243077 125.243077 0 0 0 39.384615-93.735384z"  horiz-adv-x="1024" />

    
    <glyph glyph-name="weixin2" unicode="&#59075;" d="M0 896m113.777778 0l796.444444 0q113.777778 0 113.777778-113.777778l0-796.444444q0-113.777778-113.777778-113.777778l-796.444444 0q-113.777778 0-113.777778 113.777778l0 796.444444q0 113.777778 113.777778 113.777778ZM535.096889 518.058667c0-24.462222-32.995556-39.537778-51.427556-22.584889-19.399111 13.169778-13.568 46.08 8.732445 52.679111 20.394667 7.537778 44.657778-9.386667 42.695111-30.094222m-156.188445-6.599111c-4.835556-20.707556-32.995556-31.032889-50.460444-16.924445-19.399111 13.169778-14.563556 47.047111 8.732444 53.617778 22.328889 8.476444 48.497778-14.108444 41.728-36.693333m172.686223 96.910222c-64.028444 35.754667-144.554667 40.448-214.414223 16.924444-45.596444-15.985778-87.324444-45.141333-112.554666-85.617778-23.267556-36.693333-32-81.834667-20.366222-123.221333 11.662222-46.108444 44.657778-84.679111 84.423111-111.018667-7.765333-21.646222-14.563556-42.353778-22.328889-64l75.662222 39.537778c30.094222-9.415111 63.089778-14.108444 95.089778-13.169778-8.732444 23.523556-10.666667 48.924444-6.798222 74.325334 5.831111 34.787556 25.230222 65.848889 51.427555 89.372444 44.657778 40.448 107.690667 57.372444 167.850667 53.617778-10.666667 52.679111-49.493333 97.848889-97.991111 123.249778M720.412444 356.238222c-6.798222-15.075556-29.098667-17.891556-40.760888-6.599111-5.802667 4.721778-6.769778 12.231111-8.732445 17.891556 2.929778 11.292444 10.695111 23.523556 24.263111 23.523555 18.432 2.816 34.929778-18.830222 25.230222-34.816m-124.188444 1.877334c-4.835556-15.985778-30.065778-21.617778-41.728-8.476445-12.600889 11.292444-7.736889 35.754667 8.732444 40.448 19.427556 7.537778 41.728-13.169778 32.995556-31.971555m212.48 13.169777c-15.530667 34.816-45.596444 62.094222-79.559111 79.018667-61.127111 30.122667-136.817778 30.122667-196.949333-0.938667-42.666667-20.679111-77.624889-58.311111-87.324445-104.419555-8.732444-33.848889-0.967111-69.632 17.464889-99.726222 26.197333-43.292444 75.662222-71.509333 127.089778-80.924445 37.831111-7.509333 75.662222-2.816 112.554666 7.537778 21.333333-8.476444 40.732444-21.617778 62.094223-31.032889-5.831111 17.863111-11.662222 34.787556-17.464889 52.679111 23.267556 15.985778 44.629333 36.693333 58.197333 62.094222 19.427556 34.816 20.394667 79.018667 3.896889 115.712"  horiz-adv-x="1024" />

    
    <glyph glyph-name="yishenqing" unicode="&#59076;" d="M0 896m113.777778 0l796.444444 0q113.777778 0 113.777778-113.777778l0-796.444444q0-113.777778-113.777778-113.777778l-796.444444 0q-113.777778 0-113.777778 113.777778l0 796.444444q0 113.777778 113.777778 113.777778ZM535.096889 518.058667c0-24.462222-32.995556-39.537778-51.427556-22.584889-19.399111 13.169778-13.568 46.08 8.732445 52.679111 20.394667 7.537778 44.657778-9.386667 42.695111-30.094222m-156.188445-6.599111c-4.835556-20.707556-32.995556-31.032889-50.460444-16.924445-19.399111 13.169778-14.563556 47.047111 8.732444 53.617778 22.328889 8.476444 48.497778-14.108444 41.728-36.693333m172.686223 96.910222c-64.028444 35.754667-144.554667 40.448-214.414223 16.924444-45.596444-15.985778-87.324444-45.141333-112.554666-85.617778-23.267556-36.693333-32-81.834667-20.366222-123.221333 11.662222-46.108444 44.657778-84.679111 84.423111-111.018667-7.765333-21.646222-14.563556-42.353778-22.328889-64l75.662222 39.537778c30.094222-9.415111 63.089778-14.108444 95.089778-13.169778-8.732444 23.523556-10.666667 48.924444-6.798222 74.325334 5.831111 34.787556 25.230222 65.848889 51.427555 89.372444 44.657778 40.448 107.690667 57.372444 167.850667 53.617778-10.666667 52.679111-49.493333 97.848889-97.991111 123.249778M720.412444 356.238222c-6.798222-15.075556-29.098667-17.891556-40.760888-6.599111-5.802667 4.721778-6.769778 12.231111-8.732445 17.891556 2.929778 11.292444 10.695111 23.523556 24.263111 23.523555 18.432 2.816 34.929778-18.830222 25.230222-34.816m-124.188444 1.877334c-4.835556-15.985778-30.065778-21.617778-41.728-8.476445-12.600889 11.292444-7.736889 35.754667 8.732444 40.448 19.427556 7.537778 41.728-13.169778 32.995556-31.971555m212.48 13.169777c-15.530667 34.816-45.596444 62.094222-79.559111 79.018667-61.127111 30.122667-136.817778 30.122667-196.949333-0.938667-42.666667-20.679111-77.624889-58.311111-87.324445-104.419555-8.732444-33.848889-0.967111-69.632 17.464889-99.726222 26.197333-43.292444 75.662222-71.509333 127.089778-80.924445 37.831111-7.509333 75.662222-2.816 112.554666 7.537778 21.333333-8.476444 40.732444-21.617778 62.094223-31.032889-5.831111 17.863111-11.662222 34.787556-17.464889 52.679111 23.267556 15.985778 44.629333 36.693333 58.197333 62.094222 19.427556 34.816 20.394667 79.018667 3.896889 115.712"  horiz-adv-x="1024" />

    
    <glyph glyph-name="daitianjia" unicode="&#59077;" d="M910.222222 896a113.777778 113.777778 0 0 0 113.777778-113.777778v-796.444444a113.777778 113.777778 0 0 0-113.777778-113.777778H113.777778a113.777778 113.777778 0 0 0-113.777778 113.777778V782.222222a113.777778 113.777778 0 0 0 113.777778 113.777778h796.444444z m0-28.444444H113.777778a85.333333 85.333333 0 0 1-85.333334-85.333334v-796.444444a85.333333 85.333333 0 0 1 85.333334-85.333334h796.444444a85.333333 85.333333 0 0 1 85.333334 85.333334V782.222222a85.333333 85.333333 0 0 1-85.333334 85.333334zM535.096889 518.058667c0-24.462222-32.995556-39.537778-51.427556-22.584889-19.399111 13.169778-13.568 46.08 8.732445 52.679111 20.394667 7.537778 44.657778-9.386667 42.695111-30.094222m-156.188445-6.599111c-4.835556-20.707556-32.995556-31.032889-50.460444-16.924445-19.399111 13.169778-14.563556 47.047111 8.732444 53.617778 22.328889 8.476444 48.497778-14.108444 41.728-36.693333m172.686223 96.910222c-64.028444 35.754667-144.554667 40.448-214.414223 16.924444-45.596444-15.985778-87.324444-45.141333-112.554666-85.617778-23.267556-36.693333-32-81.834667-20.366222-123.221333 11.662222-46.108444 44.657778-84.679111 84.423111-111.018667-7.765333-21.646222-14.563556-42.353778-22.328889-64l75.662222 39.537778c30.094222-9.415111 63.089778-14.108444 95.089778-13.169778-8.732444 23.523556-10.666667 48.924444-6.798222 74.325334 5.831111 34.787556 25.230222 65.848889 51.427555 89.372444 44.657778 40.448 107.690667 57.372444 167.850667 53.617778-10.666667 52.679111-49.493333 97.848889-97.991111 123.249778M720.412444 356.238222c-6.798222-15.075556-29.098667-17.891556-40.760888-6.599111-5.802667 4.721778-6.769778 12.231111-8.732445 17.891556 2.929778 11.292444 10.695111 23.523556 24.263111 23.523555 18.432 2.816 34.929778-18.830222 25.230222-34.816m-124.188444 1.877334c-4.835556-15.985778-30.065778-21.617778-41.728-8.476445-12.600889 11.292444-7.736889 35.754667 8.732444 40.448 19.427556 7.537778 41.728-13.169778 32.995556-31.971555m212.48 13.169777c-15.530667 34.816-45.596444 62.094222-79.559111 79.018667-61.127111 30.122667-136.817778 30.122667-196.949333-0.938667-42.666667-20.679111-77.624889-58.311111-87.324445-104.419555-8.732444-33.848889-0.967111-69.632 17.464889-99.726222 26.197333-43.292444 75.662222-71.509333 127.089778-80.924445 37.831111-7.509333 75.662222-2.816 112.554666 7.537778 21.333333-8.476444 40.732444-21.617778 62.094223-31.032889-5.831111 17.863111-11.662222 34.787556-17.464889 52.679111 23.267556 15.985778 44.629333 36.693333 58.197333 62.094222 19.427556 34.816 20.394667 79.018667 3.896889 115.712"  horiz-adv-x="1024" />

    
    <glyph glyph-name="jingshi" unicode="&#59074;" d="M512 832a448 448 0 1 0 0-896A448 448 0 0 0 512 832z m0-157.952a48 48 0 0 1-48-48v-288a48 48 0 0 1 96 0v288a48 48 0 0 1-48 48z m0.128-579.008a48 48 0 1 1 0 96 48 48 0 0 1 0-96z"  horiz-adv-x="1024" />

    
    <glyph glyph-name="huangguan" unicode="&#59072;" d="M599.9 304.4l-44.3 217.9c-2.9 14.2-19.2 21.3-31.6 13.8L334.2 420.2c-9.2-5.6-21.3-3.3-27.8 5.4l-89 118.3c-11.8 15.7-36.8 8.3-37.6-11.2l-9.7-217.6c-0.4-8.6 4.6-16.6 12.6-20.1l428.7-186.7c8-3.5 17.3-1.7 23.3 4.4L787.5 268c13.7 13.9 2.1 37.2-17.4 35.2l-147.2-15.4c-10.9-1.2-20.8 6-23 16.6z m24.6 291.8c-11.1-25.4-40.9-37-66.7-25.7-25.8 11.2-37.7 40.9-26.6 66.4 11.1 25.4 40.9 37 66.7 25.7 25.7-11.2 37.6-41 26.6-66.4z m294.7-277.6c-11.1-25.4-40.9-37-66.7-25.7-25.8 11.2-37.7 40.9-26.6 66.4 11.1 25.4 41 37 66.7 25.7 25.8-11.3 37.7-41 26.6-66.4zM250.2 610c-11.1-25.4-40.9-37-66.7-25.7-25.8 11.2-37.7 40.9-26.6 66.4s40.9 37 66.7 25.7c25.8-11.3 37.7-41 26.6-66.4z m0 0"  horiz-adv-x="1024" />

    
    <glyph glyph-name="huangguan-copy" unicode="&#60851;" d="M599.9 304.4l-44.3 217.9c-2.9 14.2-19.2 21.3-31.6 13.8L334.2 420.2c-9.2-5.6-21.3-3.3-27.8 5.4l-89 118.3c-11.8 15.7-36.8 8.3-37.6-11.2l-9.7-217.6c-0.4-8.6 4.6-16.6 12.6-20.1l428.7-186.7c8-3.5 17.3-1.7 23.3 4.4L787.5 268c13.7 13.9 2.1 37.2-17.4 35.2l-147.2-15.4c-10.9-1.2-20.8 6-23 16.6z m24.6 291.8c-11.1-25.4-40.9-37-66.7-25.7-25.8 11.2-37.7 40.9-26.6 66.4 11.1 25.4 40.9 37 66.7 25.7 25.7-11.2 37.6-41 26.6-66.4z m294.7-277.6c-11.1-25.4-40.9-37-66.7-25.7-25.8 11.2-37.7 40.9-26.6 66.4 11.1 25.4 41 37 66.7 25.7 25.8-11.3 37.7-41 26.6-66.4zM250.2 610c-11.1-25.4-40.9-37-66.7-25.7-25.8 11.2-37.7 40.9-26.6 66.4s40.9 37 66.7 25.7c25.8-11.3 37.7-41 26.6-66.4z m0 0"  horiz-adv-x="1024" />

    
    <glyph glyph-name="huangguan-copy-copy" unicode="&#60852;" d="M599.9 304.4l-44.3 217.9c-2.9 14.2-19.2 21.3-31.6 13.8L334.2 420.2c-9.2-5.6-21.3-3.3-27.8 5.4l-89 118.3c-11.8 15.7-36.8 8.3-37.6-11.2l-9.7-217.6c-0.4-8.6 4.6-16.6 12.6-20.1l428.7-186.7c8-3.5 17.3-1.7 23.3 4.4L787.5 268c13.7 13.9 2.1 37.2-17.4 35.2l-147.2-15.4c-10.9-1.2-20.8 6-23 16.6z m24.6 291.8c-11.1-25.4-40.9-37-66.7-25.7-25.8 11.2-37.7 40.9-26.6 66.4 11.1 25.4 40.9 37 66.7 25.7 25.7-11.2 37.6-41 26.6-66.4z m294.7-277.6c-11.1-25.4-40.9-37-66.7-25.7-25.8 11.2-37.7 40.9-26.6 66.4 11.1 25.4 41 37 66.7 25.7 25.8-11.3 37.7-41 26.6-66.4zM250.2 610c-11.1-25.4-40.9-37-66.7-25.7-25.8 11.2-37.7 40.9-26.6 66.4s40.9 37 66.7 25.7c25.8-11.3 37.7-41 26.6-66.4z m0 0"  horiz-adv-x="1024" />

    
    <glyph glyph-name="shunxu_suiji_" unicode="&#59069;" d="M877.76939116 646.66661028l88.3738131-9.81931227c36.82242138-4.90965678 56.46104723 44.18690591 24.54828136 66.28035949l-154.65417262 112.92209317c-17.18379681 12.27414002-39.27725041 7.36448454-51.55139045-7.36448454-12.27414002-17.18379681-7.36448454-39.27725041 7.36448454-51.55139044l51.55139044-36.82242136c-95.73829764-9.81931228-186.5669385-58.91587498-252.84729799-139.92520356l-294.57937488-360.85973567c-61.37070272-73.64484404-144.83485904-115.37692221-230.75384439-115.37692219H45.5826557c-19.63862457 0-36.82242138-17.18379681-36.82242267-36.82242137s17.18379681-36.82242138 36.82242267-36.82242268h19.63862457c108.01243766 0 211.11521855 51.55139043 287.21489163 142.38003259l297.0342039 355.95007759c61.37070272 76.09967178 142.3800313 115.37692221 228.29901536 117.83175124zM45.5826557 673.6697193699999h19.63862457c85.91898406 0 169.38314038-41.73207815 230.75384439-115.3769222l85.91898408-103.10278087c14.72896907-17.18379681 39.27725041-17.18379681 54.00621948-2.45482905 12.27414002 12.27414002 14.72896907 34.36759362 2.45482774 49.09656269L352.4361719 604.93453212c-76.09967178 90.82864086-179.20245396 142.3800313-287.21489163 142.38003129H45.5826557c-19.63862457 0-36.82242138-17.18379681-36.82242267-36.82242267s17.18379681-36.82242138 36.82242267-36.82242137zM966.14320426 143.42684332l-88.3738131-9.81931228c-85.91898406 0-166.92831264 41.73207815-228.29901536 115.37692221l-56.46104722 68.73518725c-14.72896907 17.18379681-41.73207815 17.18379681-56.46104724 0-12.27414002-14.72896907-12.27414002-34.36759362 0-46.64173495l56.46104724-68.73518726c66.2803595-81.00932858 157.10900036-130.10589126 252.8472967-139.92520355l-51.55139044-36.82242136c-17.18379681-12.27414002-19.63862457-34.36759362-7.36448454-51.55139044s34.36759362-19.63862457 51.55139044-7.36448454l154.65417261 112.92209316c29.45793813 19.63862457 9.81931228 66.2803595-27.00310909 63.82553176z"  horiz-adv-x="1024" />

    
    <glyph glyph-name="shunxu_xunhuan_" unicode="&#59070;" d="M492.58192555 101.35914381999999h-125.13869938c-73.35716864 0-142.39921038 30.20589283-194.18074112 81.98742357-51.78153074 51.78153074-81.98742357 122.98113593-81.98742358 198.49586916 0 75.51473209 30.20589283 146.71433728 81.98742358 198.49586802 51.78153074 51.78153074 120.82357248 81.98742357 194.18074112 81.98742357 17.26050987 0 32.36345629 15.10294642 32.36345742 32.36345743s-15.10294642 32.36345629-32.36345742 32.36345628c-90.61767851 0-176.92023011-36.67858432-241.64714382-101.40549803-62.56935026-64.72691371-99.24793458-151.02946531-99.24793458-243.80470727 0-92.77524309 36.67858432-179.0777947 99.24793458-243.80470841 62.56935026-64.72691371 148.87190073-101.40549803 241.64714382-101.40549803h49.62396729l-49.62396729-51.78153073c-12.94538297-12.94538297-12.94538297-32.36345629 0-45.30883925 12.94538297-12.94538297 32.36345629-12.94538297 45.30883925 0l105.72062607 105.72062492c17.26050987 21.5756379 4.31512803 56.09665877-25.89076594 56.09665877zM919.77955555 619.17445234c-62.56935026 64.72691371-148.87190073 101.40549803-241.64714382 101.40549803h-49.62396728L678.13241173 772.3614811c12.94538297 12.94538297 12.94538297 32.36345629 0 45.30884039-12.94538297 12.94538297-32.36345629 12.94538297-45.30883925 0l-105.72062606-105.72062606c-19.41807445-19.41807445-6.47269149-56.09665877 23.73320135-56.09665877h125.13870052c73.35716864 0 142.39921038-30.20589283 194.18073998-81.98742357 51.78153074-51.78153074 81.98742357-122.98113593 81.98742357-198.49586802 0-75.51473209-30.20589283-146.71433728-81.98742357-198.49586802-51.78153074-51.78153074-120.82357248-81.98742357-194.18073998-81.98742471-17.26050987 0-32.36345629-15.10294642-32.36345743-32.36345629s15.10294642-32.36345629 32.36345743-32.36345742c90.61767851 0 176.92023011 36.67858432 241.64714382 101.40549803 62.56935026 64.72691371 99.24793458 151.02946531 99.24793344 243.80470841 2.15756345 92.77524309-34.52102087 179.0777947-97.09037 243.80470727z"  horiz-adv-x="1024" />

    
    <glyph glyph-name="genjin1" unicode="&#59071;" d="M310.954667 347.818667a298.666667 298.666667 0 1 0 340.992 0c12.117333-4.693333 24.064-9.984 35.754666-15.701334l-42.837333-74.069333A384 384 0 0 1 99.84-46.933333H13.994667a469.674667 469.674667 0 0 0 296.96 394.666666z m170.496 31.914666a213.333333 213.333333 0 1 1 0 426.666667 213.333333 213.333333 0 0 1 0-426.666667z m338.517333-439.296l-143.872-61.44a34.133333 34.133333 0 0 0-47.274667 27.306667l-18.773333 155.306667a34.133333 34.133333 0 0 0 4.437333 21.162666l169.216 293.12a34.133333 34.133333 0 0 0 46.592 12.458667l162.645334-93.866667a34.133333 34.133333 0 0 0 12.458666-46.592L836.266667-45.226667a34.133333 34.133333 0 0 0-16.213334-14.336z m71.168 314.282667l-44.373333 25.6a17.066667 17.066667 0 0 1-23.296-6.229333L691.2 45.056l0.085333-0.170667 4.693334-49.066666a17.066667 17.066667 0 0 1 24.064-13.909334l44.970666 20.48 132.352 229.034667a17.066667 17.066667 0 0 1-6.229333 23.296z"  horiz-adv-x="1024" />

    
    <glyph glyph-name="fenpei" unicode="&#59068;" d="M38.7328-128A40.667429 40.667429 0 0 0 0.040229-85.577143V853.577143A40.667429 40.667429 0 0 0 38.7328 896h366.665143a37.376 37.376 0 0 0 30.573714-16.457143L534.787657 739.474286h361.472a40.667429 40.667429 0 0 0 38.692572-42.422857v-156.525715a38.912 38.912 0 1 0-77.458286 0V654.628571h-341.577143a37.668571 37.668571 0 0 0-30.646857 16.530286L386.3808 811.227429H77.425371v-854.454858h532.992a42.569143 42.569143 0 0 0 0-84.772571z m770.779429 85.284571a40.740571 40.740571 0 0 0-28.013715 30.646858 44.836571 44.836571 0 0 0 11.264 41.618285l99.181715 108.470857H596.081371a42.569143 42.569143 0 0 0 0 84.772572h295.716572L792.762514 331.337143a45.421714 45.421714 0 0 0 0 59.977143 36.571429 36.571429 0 0 0 54.784 0l165.229715-180.882286a45.275429 45.275429 0 0 0 0-59.904l-165.229715-180.736a37.083429 37.083429 0 0 0-28.452571-13.750857 35.986286 35.986286 0 0 0-9.581714 1.243428zM217.4208 185.051429a42.642286 42.642286 0 0 0 0 84.845714h142.848a42.642286 42.642286 0 0 0 0-84.845714z m0 234.788571a42.569143 42.569143 0 0 0 0 84.772571h357.302857a42.569143 42.569143 0 0 0 0-84.772571z"  horiz-adv-x="1024" />

    
    <glyph glyph-name="open-bookmarks" unicode="&#59067;" d="M201.31043555 831.82250666l647.26926223 0c31.8976 0 51.78140445-19.88380445 51.78140444-51.78140444l0-828.50474667c0-31.92376889-25.76156445-51.62666667-57.68419555-51.62666667l-316.64355556 220.87452445-313.04476444-220.87452445c-31.92376889 0-63.45841778 19.70289778-63.45841778 51.62666667l0 828.50474667c0 31.8976 19.88380445 51.78140445 51.78140444 51.78140444z"  horiz-adv-x="1024" />

    
    <glyph glyph-name="biaoji" unicode="&#59066;" d="M234.8-74.30399999999997A60 60 0 0 0 140-25.440000000000055V792A60 60 0 0 0 200 852h624A60 60 0 0 0 884 792v-817.296a60 60 0 0 0-94.944-48.768l-276.144 197.832L234.8-74.30399999999997zM212 780v-782.16l266.112 189.528a60 60 0 0 0 69.744-0.096L812-1.919999999999959V780h-600zM632 792h72v-288h-72z"  horiz-adv-x="1024" />

    
    <glyph glyph-name="bianji2" unicode="&#59065;" d="M725.325423 862.128616l-85.330169-85.330169H85.349155v-810.636606h810.636606v276.896399a21.759193 21.759193 0 0 0 0 0.426651v277.323049l85.330169 85.330169-0.042666-170.617673H981.31593v-469.315929a85.330169 85.330169 0 0 0-85.330169-85.330169H85.349155a85.330169 85.330169 0 0 0-85.330169 85.330169v810.636605a85.330169 85.330169 0 0 0 85.330169 85.330169h639.976268z m256.417157 27.60431l30.20688-30.20688a21.332542 21.332542 0 0 0 0-30.164215L520.277026 337.732062a21.332542 21.332542 0 0 0-14.804784-6.271767l-29.481573-0.426651a21.332542 21.332542 0 0 0-21.631198 21.033887l-0.426651 30.846856a21.332542 21.332542 0 0 0 6.229102 15.35943L951.578366 889.775591a21.332542 21.332542 0 0 0 30.164214 0z"  horiz-adv-x="1024" />

    
    <glyph glyph-name="xiugai" unicode="&#59064;" d="M1024-39.384615V-88.615385a39.384615 39.384615 0 0 0-39.384615-39.384615H39.384615a39.384615 39.384615 0 0 0-39.384615 39.384615v49.23077a39.384615 39.384615 0 0 0 39.384615 39.384615h945.23077a39.384615 39.384615 0 0 0 39.384615-39.384615zM716.563692 587.539692L285.617231 156.475077a39.384615 39.384615 0 0 0-27.844923-11.539692H152.536615a39.384615 39.384615 0 0 0-39.384615 39.384615v105.314462a39.384615 39.384615 0 0 0 11.539692 27.844923L555.677538 748.504615l160.886154-160.964923zM744.369231 881.427692l105.235692-105.235692a39.384615 39.384615 0 0 0 0-55.689846L776.900923 647.876923l-160.925538 160.846769L688.679385 881.427692a39.384615 39.384615 0 0 0 55.72923 0z"  horiz-adv-x="1024" />

    
    <glyph glyph-name="weixin" unicode="&#59094;" d="M658.48275875 629.7931031200001a58.75862062 58.75862062 0 0 0-95.58620719-41.37931031 59.17241344 59.17241344 0 0 0 16.13793094 101.37931031 60 60 0 0 0 79.44827625-57.93103406M367.17241344 615.72413812a59.58620719 59.58620719 0 1 0-77.79310313 72.00000001A60.82758656 60.82758656 0 0 0 367.17241344 615.72413812m322.34482781 186.62068969A491.58620719 491.58620719 0 0 1 289.37931031 836.27586188a406.34482781 406.34482781 0 0 1-209.79310312-165.51724125 305.79310313 305.79310313 0 0 1-38.06896594-237.10344844A372.41379281 372.41379281 0 0 1 197.51724125 220.96551750000003c-14.48275875-41.37931031-27.31034437-82.75862063-41.37931031-124.13793094l141.10344843 76.13793094a524.27586187 524.27586187 0 0 1 177.51724125-25.24137938 291.72413813 291.72413813 0 0 0-12.82758656 142.75862063 304.13793094 304.13793094 0 0 0 96 172.13793094 420.82758656 420.82758656 0 0 0 313.24137938 103.0344825 357.10344844 357.10344844 0 0 1-182.89655157 237.10344843M1004.41379281 318.62068968999995a48.41379281 48.41379281 0 0 0-76.13793093-12.82758657 69.10344844 69.10344844 0 0 0-16.13793094 34.34482782c5.37931031 21.93103406 19.86206906 45.51724125 45.10344844 45.51724125a47.17241344 47.17241344 0 0 0 47.17241343-67.0344825m-231.72413718 3.72413812a47.58620719 47.58620719 0 0 0-77.79310407-16.55172469 47.58620719 47.58620719 0 1 0 77.79310407 16.55172469m396.41379281 25.24137938a319.0344825 319.0344825 0 0 1-148.55172469 151.86206906 405.10344844 405.10344844 0 0 1-367.44827531 0 297.51724125 297.51724125 0 0 1-162.62068969-201.10344844 254.48275875 254.48275875 0 0 1 32.27586188-191.58620719 349.65517219 349.65517219 0 0 1 237.10344843-155.58620718 431.58620719 431.58620719 0 0 1 210.20689688 14.48275875c41.37931031-16.55172375 75.72413812-41.37931031 115.86206812-60-11.17241344 34.34482781-21.93103406 67.0344825-32.68965468 101.37931031a346.34482781 346.34482781 0 0 1 108.41379281 119.58620719 259.0344825 259.0344825 0 0 1 7.44827625 222.62068969"  horiz-adv-x="1235" />

    
    <glyph glyph-name="biaoqian" unicode="&#59063;" d="M498.751844 877.265926L1005.279686 370.73808399999996a63.67998 63.67998 0 0 0 18.751994-45.247986 63.74398 63.74398 0 0 0-18.751994-45.247986L615.775808-109.26176599999997a63.99998 63.99998 0 0 0-90.495972 0L18.751994 397.266076A63.99998 63.99998 0 0 0 0 442.514062L0 832.01794a63.99998 63.99998 0 0 0 63.99998001 63.99998l389.47187799 0c16.991995 0 33.27999-6.751998 45.279986-18.751994z m71.77597799-895.99972l344.25589201 344.223892-68.735978 68.735979L501.823843 49.97018400000002l68.70397899-68.703978zM95.99997 800.01795L95.99997 455.794058 433.951864 117.84216301000004 778.175757 462.098056 440.223862 800.01795 95.99997 800.01795z m127.99996-191.99994a63.99998 63.99998 0 1 0 127.96796001 0.032A63.99998 63.99998 0 0 0 223.99993 608.01801z"  horiz-adv-x="1024" />

    
    <glyph glyph-name="huoma" unicode="&#59062;" d="M417.90694 895.424018a63.998 63.998 0 0 0 63.998-63.998V478.09306a63.998 63.998 0 0 0-63.998-63.998H64.63798a63.998 63.998 0 0 0-63.998 63.998V831.36202a63.998 63.998 0 0 0 63.998 63.998z m-32.766976-96.63698h-287.991v-287.991h287.991v287.991zM417.90694 353.360957a63.998 63.998 0 0 0 63.998-63.998V-63.970001a63.998 63.998 0 0 0-63.998-63.998H64.63798a63.998 63.998 0 0 0-63.998 63.998V289.362957a63.998 63.998 0 0 0 63.998 63.998z m-32.766976-96.63698h-287.991v-287.991h287.991v287.991zM959.970001 895.424018a63.998 63.998 0 0 0 63.998-63.998V478.09306a63.998 63.998 0 0 0-63.998-63.998H606.637043a63.998 63.998 0 0 0-63.998 63.998V831.36202a63.998 63.998 0 0 0 63.998 63.998z m-32.766976-96.63698h-287.991v-287.991h287.991v287.991zM611.628887-127.968001a58.366176 58.366176 0 1 1 0 116.668354 58.366176 58.366176 0 0 1 0-116.668354zM900.003875-11.299647h-58.366176a58.366176 58.366176 0 1 1 0-116.668354H959.970001a63.998 63.998 0 0 1 63.998 63.998v118.332302a58.366176 58.366176 0 1 1-116.668354 0v-62.014062a3.647886 3.647886 0 0 0-3.647886-3.647886h-3.647886zM890.212181 239.060529h75.389644a58.366176 58.366176 0 1 1 0 116.668354H890.212181a58.366176 58.366176 0 1 1 0-116.668354zM553.262711 295.058779v-108.668604a58.366176 58.366176 0 1 1 116.668354 0V295.058779a58.366176 58.366176 0 1 1-116.668354 0zM182.906284 596.425362H299.51064V713.093716H182.906284zM182.906284 54.362301H299.51064v116.668354H182.906284zM724.969345 596.425362h116.668354V713.093716h-116.668354z"  horiz-adv-x="1025" />

    
    <glyph glyph-name="bofang2" unicode="&#59061;" d="M269.42 840.45C188 891.9 122 855.42 122 758.79v-749.88c0-96.54 65.82-132.87 147.42-80.85l571.29 364.2c81.42 51.9 81.6 135.6 0 187.14L269.42 840.45z"  horiz-adv-x="1024" />

    
    <glyph glyph-name="kong" unicode="&#59060;" d="M504.475 70.559c-105.228 0-210.448-0.028-315.666 0.025-23.378 0.017-24.967 1.538-24.988 24.23-0.076 77.038-0.263 154.078 0.266 231.112 0.07 10.296 2.522 21.204 6.473 30.759 31.09 75.21 63.101 150.043 94.106 225.293 5.81 14.104 13.469 20.108 29.271 20.045 137.792-0.533 275.577-0.51 413.369-0.01 15.42 0.056 23.748-5.112 29.981-19.262 33.063-75.063 67.292-149.604 100.29-224.682 4.855-11.046 7.36-24.017 7.468-36.122 0.667-74.524 0.354-149.06 0.325-223.594-0.011-27.07-0.674-27.768-27.106-27.774-104.597-0.03-209.198-0.02-313.79-0.02m0.634 12.192c101.448-0.018 202.894 0.462 304.345-0.428 19.329-0.172 24.406 6.05 24.137 24.652-0.976 66.989-0.875 134.012-0.051 201.007 0.21 17.255-5.38 22.714-22.497 22.395-49.454-0.928-98.96-1.186-148.397 0.13-18.243 0.487-24.939-5.51-27.854-23.171-9.612-58.162-52.953-99.955-111.264-109.57-70.94-11.71-140.324 36.011-152.381 106.963-3.471 20.41-11.03 26.453-31.303 25.818-48.173-1.515-96.428-0.944-144.641-0.268-14.785 0.21-19.57-4.993-19.455-19.583 0.542-69.51 0.65-139.026-0.057-208.532-0.173-16.453 6.762-19.701 21.318-19.644 102.703 0.43 205.395 0.23 308.1 0.23m234.596 259.472c-9.856 28.945-17.426 53.253-26.799 76.852-1.739 4.37-10.718 8.32-16.367 8.343-129.586 0.462-259.179 0.435-388.76 0.057-5.33-0.011-14.042-3.103-15.413-6.86-8.913-24.441-16.238-49.462-25.38-78.395 31.782 0 59.12-0.703 86.399 0.258 17.597 0.617 25.538-3.763 26.39-23.761 2.676-62.74 58.277-111.942 123.63-111.852 64.034 0.099 119.378 49.465 122.236 111.372 0.897 19.336 7.707 25.002 25.91 24.275 27.351-1.103 54.783-0.29 88.154-0.29m-236.35 97.834c62.672-0.025 125.35 0.405 188.013-0.316 16.05-0.189 22.302 4.282 21.804 21.182-1.08 36.938-0.668 73.94-0.187 110.915 0.165 12.646-4.025 17.866-17.278 17.837-128.477-0.309-256.95-0.284-385.428-0.011-12.61 0.029-18.06-3.962-17.865-17.25 0.554-38.224 0.66-76.461-0.051-114.675-0.277-14.584 6.082-17.97 19.221-17.877 63.917 0.423 127.852 0.195 191.771 0.195M175.643 342.53c27.689 0 49.488-1.07 71.043 0.766 5.322 0.46 12.045 9.559 14.378 16.037 13.62 37.802 22.647 76.333 19.684 117.301-1.977 27.373-0.315 55.005-0.434 82.524-0.017 5.914-0.691 11.833-1.064 17.75-1.607 0.313-3.213 0.635-4.82 0.954-32.354-77.067-64.707-154.132-98.787-235.332m657.926-0.27c-35.28 78.517-68.555 152.544-101.817 226.57-1.688-0.373-3.379-0.733-5.065-1.097-0.549-5.158-1.527-10.303-1.567-15.46-0.172-24.396 1.377-48.894-0.406-73.147-3.054-41.553 6.438-80.491 19.605-119.216 4.203-12.362 9.895-18.694 23.92-17.923 19.777 1.079 39.648 0.274 65.33 0.274M457.971-8.234c-22.503-41.88-50.97-77.572-93.631-99.88-6.337-3.305-14.2-5.906-21.12-5.438-13.63 0.926-27.282 3.499-40.583 6.78-11.501 2.843-19.706 1.767-27.613-8.604-4.741-6.22-14.355-13.08-21.268-12.589-35.298 2.55-68.98 12.274-100.888 28.603 36.768 0.435 68.436 13.242 93.753 38.408 16.252 16.157 30.107 35.064 43 54.115 7.248 10.714 11.947 11.497 23.834 6.603 17.569-7.227 36.824-13.595 55.532-14.093 29-0.773 58.14 3.705 88.984 6.095m-259.305-99.647c17.682-3.314 32.186-7.654 46.813-8.116 7.895-0.258 18.271 4.098 23.52 9.958 9.735 10.903 19.317 14.34 33.012 9.69 65.083-22.073 106.473 27.948 131.999 73.834-9.186-0.71-17.06-0.601-24.647-2.011-33.001-6.12-64.439-1.19-95.496 10.787-4.75 1.83-15.122-1.205-17.83-5.323-23.178-35.27-51.36-64.433-90.951-81.134-1.457-0.617-2.304-2.665-6.42-7.685M83.498 895.997c9.964-12.865 17.174-25.808 27.734-34.806 10.942-9.336 13.338-18.935 13.04-32.423-1.121-50.969 7.737-99.502 39.541-141.46 0.738-0.974 0.097-2.999 0.097-4.867C59.508 715.99 58.945 823.33 83.498 895.997m51.89-184.015c-17.198 41.433-21.428 81.935-22.211 123.482-0.2 10.506-13.458 20.77-21.559 32.341-22.928-42.56-5.17-143.663 43.77-155.823m737.573-199.028c15.757 3.469 31.12 4.362 44.075 10.399 13.149 6.13 23.924 17.346 36.743 27.093-11.287-41.42-35.172-67.176-67.88-73.848-4.481 12.608-8.999 25.294-12.938 36.356M282.88 739.238c2.658-12.677 3.87-23.064 7.14-32.761 3.368-10.01 9.965-19.01 12.76-29.118 1.586-5.741-1.621-12.807-3.127-22.057-23.04 26.168-29.945 60.214-16.773 83.936m0 0"  horiz-adv-x="1024" />

    
    <glyph glyph-name="shenglve" unicode="&#59201;" d="M512-62.7c-246.7 0-447.5 200.8-447.5 447.5S265.3 832.3 512 832.3s447.5-200.8 447.5-447.5S758.7-62.7 512-62.7z m0 836.1c-214.3 0-388.6-174.3-388.6-388.6S297.7-3.7 512-3.7s388.6 174.3 388.6 388.6S726.3 773.4 512 773.4zM327.2 384.8m-58.9 0a58.9 58.9 0 1 1 117.8 0 58.9 58.9 0 1 1-117.8 0ZM511.5 384.8m-58.9 0a58.9 58.9 0 1 1 117.8 0 58.9 58.9 0 1 1-117.8 0ZM694.8 384.8m-58.9 0a58.9 58.9 0 1 1 117.8 0 58.9 58.9 0 1 1-117.8 0Z"  horiz-adv-x="1024" />

    
    <glyph glyph-name="ID" unicode="&#59059;" d="M910.222222 896a113.777778 113.777778 0 0 0 113.777778-113.777778v-796.444444a113.777778 113.777778 0 0 0-113.777778-113.777778H113.777778a113.777778 113.777778 0 0 0-113.777778 113.777778V782.222222a113.777778 113.777778 0 0 0 113.777778 113.777778h796.444444zM316.017778 616.675556H217.315556V128h98.702222V616.675556z m273.976889 0h-180.337778V128h185.685333c54.670222 0 54.670222 0 87.324445 10.325333 43.662222 13.994667 43.662222 13.994667 69.347555 38.997334 33.991111 32.995556 33.991111 32.995556 52.337778 86.357333 14.990222 43.662222 14.990222 43.662222 14.990222 103.992889 0 68.664889 0 68.664889-16.014222 115.484444-15.985778 46.848-15.985778 46.848-46.648889 79.189334-30.691556 32.312889-30.691556 32.312889-73.671111 44.999111-29.354667 8.533333-29.354667 8.533333-83.057778 9.244444l-9.955555 0.085334z m-37.319111-82.688c60.302222 0 60.302222 0 80.981333-4.664889 27.676444-5.973333 27.676444-5.973333 45.681778-22.983111 18.005333-17.009778 18.005333-17.009778 27.989333-47.331556 10.012444-30.350222 10.012444-30.350222 10.012444-87.011556 0-56.661333 0-56.661333-10.012444-89.486222-9.984-32.853333-9.984-32.853333-25.827556-47.189333-15.843556-14.307556-15.843556-14.307556-39.822222-20.309333-18.346667-4.664889-18.346667-4.664889-59.676444-4.664889h-73.671111V533.987556h44.344889z"  horiz-adv-x="1024" />

    
    <glyph glyph-name="duanxin" unicode="&#59053;" d="M512 880C238.064 880 16 657.936 16 384s222.064-496 496-496c273.936 0 496 222.064 496 496S785.936 880 512 880zM750.816 268.94399999999996c0-26.16-21.392-47.376-47.76-47.376l-131.344 0-179.104-94.752 0 94.752-71.648 0c-26.384 0-47.76 21.216-47.76 47.376L273.2 529.52c0 26.16 21.376 47.376 47.76 47.376l382.096 0c26.384 0 47.76-21.216 47.76-47.376L750.816 268.94399999999996z"  horiz-adv-x="1024" />

    
    <glyph glyph-name="fasong1" unicode="&#59054;" d="M512 896C229.22939 896 0 666.77061 0 384s229.22939-512 512-512 512 229.22939 512 512S794.762881 896 512 896z m300.238946-546.411075l-491.810933-245.901601c-29.023716-14.507994-61.873462 11.199831-54.762458 42.859256l37.726966 167.951088a62.963301 62.963301 0 0 0 57.498649 49.042737l126.405821 7.914857c15.520539 0.973898 15.582373 23.798675 0.061835 24.849866l-126.761371 8.59504a62.963301 62.963301 0 0 0-57.197204 48.988632l-37.719238 167.549161c-7.126462 31.690343 25.731013 57.390438 54.762459 42.874715l491.764556-245.878413c28.397639-14.183361 28.397639-54.661977 0.030918-68.845338z"  horiz-adv-x="1024" />

    
    <glyph glyph-name="huru" unicode="&#59055;" d="M512 896c283.10528 0 512-228.89472 512-512s-228.89472-512-512-512S0 100.89472 0 384 228.89472 896 512 896zM342.64576 675.84a50.1248 50.1248 0 0 1-9.59488-0.88064c-10.3936-2.00704-21.26336-7.13728-33.1776-15.63136-8.70912-6.01088-84.6592-61.2352-66.74944-161.51552 3.43552-21.80096 26.7008-136.74496 138.85952-254.73536 65.31584-68.69504 128.71168-111.97952 205.93664-140.27264 19.58912-7.69536 39.0912-12.58496 57.64096-14.592 17.664-2.00192 34.93376-1.43872 51.32288 1.6896 59.56096 11.2128 90.5728 53.38112 94.01344 58.2656 13.91104 19.00032 19.58912 35.4304 17.34656 50.33984-3.51744 21.80608-24.93952 37.11488-37.7344 46.336-33.9712 24.20224-75.6224 41.35424-77.4656 42.07616a139.8528 139.8528 0 0 1-17.90464 6.33344 48.4608 48.4608 0 0 1-4.87424 0.24064c-2.71872 0-5.51936-0.24064-7.8336-0.7168-15.03232-2.88768-29.42464-13.952-43.89376-33.99168-7.67488-10.57792-14.54592-22.84544-18.46272-30.45888-1.52064-3.76832-4.79744-6.656-8.87808-7.85408l-1.11616-0.32256a12.9792 12.9792 0 0 0-2.47808-0.24064c-2.71872 0-5.2736 0.72192-7.35744 2.08384-40.92928 25.89184-81.54112 59.8784-117.51424 98.19136-36.53632 38.95808-68.1984 82.4832-91.61728 125.68576-3.51744 6.25152-1.43872 14.26944 4.5568 18.19648 5.4272 3.46624 33.024 21.6576 39.43424 25.89184l0.72704 0.48128 0.6144 0.39936 0.7936 0.48128c1.67424 1.28 3.3536 2.55488 5.0176 3.85024l1.65376 1.3056c16.72704 13.33248 30.68928 29.05088 17.47456 62.49472-14.3104 36.5568-31.8976 70.62016-48.04608 93.70624-11.83232 16.99328-25.82528 21.80096-35.33824 22.92224A58.5472 58.5472 0 0 1 342.64576 675.84z m402.74944-46.73536a16.62464 16.62464 0 0 1-23.59808 1.6128l-94.76608-83.0976-39.31136 44.24704c-10.05056 11.29472-28.55936 7.71584-33.7408-6.44608l-35.6608-163.33312c-5.10464-14.24384 6.8608-28.7232 21.77536-26.496l182.04672-1.35168c15.7184 2.304 22.5792 21.00224 11.96544 32.86016l-40.19712 45.24032 93.94176 82.3296a16.81408 16.81408 0 0 1 1.60768 23.71072l-44.06272 50.72384z"  horiz-adv-x="1024" />

    
    <glyph glyph-name="huchu" unicode="&#59057;" d="M512 896c283.10528 0 512-228.89472 512-512s-228.89472-512-512-512S0 100.89472 0 384 228.89472 896 512 896zM342.64576 675.84a50.1248 50.1248 0 0 1-9.59488-0.88064c-10.3936-2.00704-21.26336-7.13728-33.1776-15.63136-8.70912-6.01088-84.6592-61.2352-66.74944-161.51552 3.43552-21.80096 26.7008-136.74496 138.85952-254.73536 65.31584-68.69504 128.71168-111.97952 205.93664-140.27264 19.58912-7.69536 39.0912-12.58496 57.64096-14.592 17.664-2.00192 34.93376-1.43872 51.32288 1.6896 59.56096 11.2128 90.5728 53.38112 94.01344 58.2656 13.91104 19.00032 19.58912 35.4304 17.34656 50.33984-3.51744 21.80608-24.93952 37.11488-37.7344 46.336-33.9712 24.20224-75.6224 41.35424-77.4656 42.07616a139.8528 139.8528 0 0 1-17.90464 6.33344 48.4608 48.4608 0 0 1-4.87424 0.24064c-2.71872 0-5.51936-0.24064-7.8336-0.7168-15.03232-2.88768-29.42464-13.952-43.89376-33.99168-7.67488-10.57792-14.54592-22.84544-18.46272-30.45888-1.52064-3.76832-4.79744-6.656-8.87808-7.85408l-1.11616-0.32256a12.9792 12.9792 0 0 0-2.47808-0.24064c-2.71872 0-5.2736 0.72192-7.35744 2.08384-40.92928 25.89184-81.54112 59.8784-117.51424 98.19136-36.53632 38.95808-68.1984 82.4832-91.61728 125.68576-3.51744 6.25152-1.43872 14.26944 4.5568 18.19648 5.4272 3.46624 33.024 21.6576 39.43424 25.89184l0.72704 0.48128 0.6144 0.39936 0.7936 0.48128c1.67424 1.28 3.3536 2.55488 5.0176 3.85024l1.65376 1.3056c16.72704 13.33248 30.68928 29.05088 17.47456 62.49472-14.3104 36.5568-31.8976 70.62016-48.04608 93.70624-11.83232 16.99328-25.82528 21.80096-35.33824 22.92224A58.5472 58.5472 0 0 1 342.64576 675.84z m245.93408-40.96c-15.7184-2.304-22.5792-21.00224-11.96544-32.86016l40.19712-45.24032-93.94176-82.3296a16.81408 16.81408 0 0 1-1.60768-23.71072l44.06272-50.72384a16.62464 16.62464 0 0 1 23.59808-1.6128l94.76608 83.0976 39.31136-44.24704c10.05056-11.29472 28.55936-7.71584 33.7408 6.44608l35.6608 163.33312c5.10464 14.24384-6.8608 28.7232-21.77536 26.496L588.57984 634.88z"  horiz-adv-x="1024" />

    
    <glyph glyph-name="weixinhuru" unicode="&#59052;" d="M516.654545 896c283.927273 0 512-218.763636 512-488.727273S800.581818-81.45454500000005 516.654545-81.45454500000005c-93.090909 0-181.527273 23.272727-256 65.163636l-195.490909-32.581818 46.545455 158.254545c-69.818182 83.781818-111.709091 186.181818-111.709091 302.545455C4.654545 677.236364 232.727273 896 516.654545 896z m153.6-293.236364c-4.654545 0-13.963636 0-18.618181-4.654545l-144.290909-125.672727-60.509091 65.163636c-13.963636 18.618182-41.890909 13.963636-51.2-9.309091l-55.854546-246.690909c-9.309091-23.272727 9.309091-41.890909 32.581818-41.890909h279.272728c23.272727 4.654545 32.581818 32.581818 18.618181 51.2L609.745455 360.72727299999997l144.290909 125.672727c9.309091 9.309091 13.963636 23.272727 4.654545 37.236364l-65.163636 79.127272c-13.963636-4.654545-18.618182 0-23.272728 0z"  horiz-adv-x="1028" />

    
    <glyph glyph-name="0weixinhuchu" unicode="&#59048;" d="M516.654545 896c283.927273 0 512-218.763636 512-488.727273S800.581818-81.45454500000005 516.654545-81.45454500000005c-97.745455 0-186.181818 27.927273-265.30909 69.818181l-181.527273-32.581818 41.890909 148.945455C41.890909 188.509091 0 290.909091 0 407.272727 4.654545 677.236364 232.727273 896 516.654545 896zM446.836364 602.763636c-23.272727-4.654545-32.581818-32.581818-18.618182-51.2l60.509091-69.818181-144.290909-125.672728c-9.309091-9.309091-13.963636-23.272727-4.654546-37.236363l65.163637-79.127273c4.654545-4.654545 9.309091-9.309091 18.618181-9.309091 4.654545 0 13.963636 0 18.618182 4.654545l144.290909 125.672728 60.509091-65.163637c13.963636-18.618182 41.890909-13.963636 51.2 9.309091l55.854546 246.690909c9.309091 23.272727-9.309091 41.890909-32.581819 41.890909l-274.618181 9.309091z"  horiz-adv-x="1028" />

    
    <glyph glyph-name="hongbao1" unicode="&#59049;" d="M131.215393 896h761.569214v-1024H131.215393zM131.215393 877.66542h761.569214v-171.578835a209.342598 209.342598 0 0 0-209.342597-209.342598H340.55799A209.342598 209.342598 0 0 0 131.215393 706.086585V877.66542zM131.215393 896h761.569214v-166.926777a209.342598 209.342598 0 0 0-209.342597-209.342598H340.55799A209.342598 209.342598 0 0 0 131.215393 729.073223V896zM512.136825 486.61892m-156.80171 0a156.80171 156.80171 0 1 1 313.603421 0 156.80171 156.80171 0 1 1-313.603421 0ZM512.136825 497.017638m-156.80171 0a156.80171 156.80171 0 1 1 313.603421 0 156.80171 156.80171 0 1 1-313.603421 0Z"  horiz-adv-x="1024" />

    
    <glyph glyph-name="hongbao2" unicode="&#59051;" d="M822.085818-57.297454990000006H178.827636a61.533091 61.533091 0 0 0-61.393454 61.34691V576.7912730099999h83.874909l598.295273 10.24h83.874909v-582.469818c0-34.257455-27.648-61.905455-61.393455-61.905455zM632.878545 408.01745501s-24.017455-100.212364-133.957818-100.212364-156.485818 103.284364-156.485818 103.284364c-87.970909 16.384-137.029818 45.009455-198.935273 81.314909l-26.065454 15.36V755.71200001C117.434182 789.50400001 145.035636 817.10545501 178.827636 817.10545501h643.258182c33.745455 0 61.393455-27.601455 61.393455-61.34691v-236.776727l-19.456-12.288c-4.096-2.513455-8.704-5.585455-12.753455-8.145454-65.489455-41.937455-117.108364-75.170909-218.391273-90.530909zM500.456727 321.163636a175.662545 175.662545 0 0 0-175.383272 175.383273 175.243636 175.243636 0 0 0 175.383272 174.917818 175.662545 175.662545 0 0 0 175.383273-175.429818 175.243636 175.243636 0 0 0-175.383273-174.871273zM632.878545 422.86545501s-24.017455-100.258909-133.957818-100.25891-156.485818 103.796364-156.485818 103.796364c-87.970909 15.872-137.029818 45.009455-198.935273 81.314909l-26.065454 15.36V770.56000001C117.434182 804.35200001 145.035636 832.00000001 178.827636 832.00000001h643.258182c33.745455 0 61.393455-27.601455 61.393455-61.393455v-236.730181l-19.456-12.288c-4.096-2.56-8.704-5.585455-12.753455-8.192-65.489455-41.890909-117.108364-74.658909-218.391273-90.484364zM500.456727 279.69163601a175.662545 175.662545 0 0 0-175.383272 175.383273 175.243636 175.243636 0 0 0 175.383272 174.871273 175.662545 175.662545 0 0 0 175.383273-175.383273 175.243636 175.243636 0 0 0-175.383273-174.871273zM595.037091 386.56000001v40.913455H520.378182V476.53236401h74.658909v40.96h-20.433455l11.264 45.986909h-42.449454l-11.264-46.033455H473.367273l-12.8 46.033455h-42.449455l12.8-46.033455H406.341818v-40.913454h73.169455V427.52000001H405.829818v-40.96h73.169455V324.65454501h40.866909V386.56000001z"  horiz-adv-x="1024" />

    
    <glyph glyph-name="guanbi" unicode="&#59042;" d="M994.730667 866.730667a64 64 0 0 0 0-90.538667L602.453333 384l392.234667-392.192a64 64 0 0 0-90.538667-90.538667L512 293.546667l-392.192-392.234667a64 64 0 0 0-90.538667 90.538667L421.546667 384 29.269333 776.192A64 64 0 0 0 119.808 866.730667L512 474.453333 904.192 866.730667a64 64 0 0 0 90.538667 0z"  horiz-adv-x="1024" />

    
    <glyph glyph-name="shaixuan" unicode="&#59043;" d="M573.71119063-95.99519999999995a97.7137275 97.7137275 0 0 0-45.94259532 10.97136563l-124.45643156 68.57103656a90.17091375 90.17091375 0 0 0-34.28551781 34.28551875 89.14234781 89.14234781 0 0 0-13.0284975 48.34258125V459.08734219L59.428415 704.91450937a102.85655531 102.85655531 0 0 0-25.37128406 48.68543532 91.88518969 91.88518969 0 0 0 5.48568281 54.17111906 90.17091375 90.17091375 0 0 0 34.28551875 41.1426225A102.85655531 102.85655531 0 0 0 126.28517563 863.99931469h771.08130843a93.94232062 93.94232062 0 0 0 51.42827719-15.08562844 94.97088562 94.97088562 0 0 0 34.28551875-40.45691156 91.54233375 91.54233375 0 0 0 8.57137875-53.14255406 90.51376875 90.51376875 0 0 0-21.25702125-45.59973938l-4.45711688-4.45711687-291.08405156-233.48438063-6.85710375-473.82586312a92.22804469 92.22804469 0 0 0-26.39984906-65.82819563 93.25660969 93.25660969 0 0 0-65.48533969-28.114125zM108.79956125 752.57137969l314.39820375-261.25564969v-424.79757281a24.34271812 24.34271812 0 0 1 3.08569594-13.0284975 26.39984906 26.39984906 0 0 1 9.59994562-8.91423469l124.45643156-68.57103656a28.799835 28.799835 0 0 1 14.0570625-2.74284094 24.68557313 24.68557313 0 0 1 17.14275938 7.54281375 23.65700812 23.65700812 0 0 1 6.85710375 17.48561438l7.19995875 507.42567187 313.36963781 251.31284906a27.77127 27.77127 0 0 1 4.11426188 9.25709063 24.68557313 24.68557313 0 0 1 0 14.0570625 27.08555906 27.08555906 0 0 1-9.59994469 10.97136562 28.45698 28.45698 0 0 1-16.11419344 4.11426188H125.94232063a26.39984906 26.39984906 0 0 1-14.39991844-3.77140688 25.37128313 25.37128313 0 0 1-8.91423469-10.97136562 19.88560031 19.88560031 0 0 1 0-13.3713525 34.28551875 34.28551875 0 0 1 6.17139375-14.7427725zM751.65303031 418.28757563h308.56966594a34.28551875 34.28551875 0 0 0 0-68.57103657h-308.56966594a34.28551875 34.28551875 0 0 0 0 68.57103657zM751.65303031 246.85998374999997h308.56966594a34.28551875 34.28551875 0 0 0 0-68.57103656h-308.56966594a34.28551875 34.28551875 0 0 0 0 68.57103656zM751.65303031 75.43239187999995h308.56966594a34.28551875 34.28551875 0 0 0 0-68.57103657h-308.56966594a34.28551875 34.28551875 0 0 0 0 68.57103656z"  horiz-adv-x="1024" />

    
    <glyph glyph-name="paixu1" unicode="&#59044;" d="M90.25525958 790.12624031h664.59468a36.92192625 36.92192625 0 0 0 0-73.84385344H90.25525958a36.92192625 36.92192625 0 1 0 0 73.84385344zM939.45957364 863.97009281a36.92192625 36.92192625 0 0 0 36.92192625-36.92192625v-886.12624031a36.92192625 36.92192625 0 1 0-73.84385344 0V827.04816656a36.92192625 36.92192625 0 0 0 36.92192719 36.92192625zM913.35577114 853.41042187a36.92192625 36.92192625 0 0 0 52.20760406 1e-8l208.86733969-208.86733876a36.92192625 36.92192625 0 1 0-52.207605-52.20760406L913.35577114 801.2028178099999a36.92192625 36.92192625 0 0 0 0 52.20760407zM90.25525958 420.90697313h664.59468a36.92192625 36.92192625 0 0 0 0-73.84385344H90.25525958a36.92192625 36.92192625 0 1 0 0 73.84385343zM90.25525958 51.68770687999995h664.59468a36.92192625 36.92192625 0 0 0 0-73.84385344H90.25525958a36.92192625 36.92192625 0 1 0 0 73.84385343z"  horiz-adv-x="1213" />

    
    <glyph glyph-name="sousuo" unicode="&#59045;" d="M472.86153875 864c233.28 0 422.4-189.12 422.4-422.4 0-107.70461531-40.32-206.03076938-106.70769281-280.61538469l171.3230775-171.24923062a38.4 38.4 0 1 0-54.35076938-54.31384594l-172.98461531 173.02153781a420.55384594 420.55384594 0 0 0-259.68-89.24307656C239.58153875 19.200000000000045 50.46153875 208.32000000000005 50.46153875 441.6S239.58153875 864 472.86153875 864z m0-73.84615406a348.55384594 348.55384594 0 1 1 0-697.10769188 348.55384594 348.55384594 0 0 1 0 697.10769188z"  horiz-adv-x="1024" />

    
    <glyph glyph-name="shezhi" unicode="&#59046;" d="M522.68755045 225.79703489999997a158.20280443 158.20280443 0 1 0 158.20280519 158.2028052A160.12429647 160.12429647 0 0 0 522.68755045 225.79703489999997z m0 263.5645917a105.36178729 105.36178729 0 1 1 105.36178729-105.3617865A104.08079232 104.08079232 0 0 1 522.68755045 489.3616266zM694.34079615-11.507172110000056H347.19132142a99.27706335 99.27706335 0 0 0-87.10761704 50.91952663L89.07095578 334.36130765999997a91.59109746 91.59109746 0 0 0 0 101.1985554L266.48867609 730.18856842A104.08079232 104.08079232 0 0 0 352.63554749 779.50685153h341.70524866a99.27706335 99.27706335 0 0 0 87.10761703-50.91952585l174.53548339-294.62870537a91.59109746 91.59109746 0 0 0 0-101.51880393l-174.85573194-294.62870537a104.40104087 104.40104087 0 0 0-86.78736848-49.31828312zM351.03430476 726.6658336200001a51.88027227 51.88027227 0 0 1-41.63231725-24.97938972l-174.85573115-294.62870536a39.71082518 39.71082518 0 0 1 0-44.8348027l171.97349423-298.47168868a46.75629476 46.75629476 0 0 1 40.67157083-23.378147h347.14947473a51.88027227 51.88027227 0 0 1 41.63231723 24.97938972l174.85573117 294.62870536a39.71082518 39.71082518 0 0 1 0 44.83480347l-175.49622826 299.43243356a47.0765433 47.0765433 0 0 1-40.99182014 23.37814777z"  horiz-adv-x="1024" />

    
    <glyph glyph-name="zhongfu" unicode="&#59047;" d="M509.44 896C228.16 896 0 667.84 0 386.56s228.16-509.44 509.44-509.44 509.44 228.16 509.44 509.44S790.72 896 509.44 896z m0-786.56a54.368 54.368 0 1 0 0 108.704 54.368 54.368 0 0 0 0-108.704z m43.2 197.568c-2.976-32-23.232-46.816-43.328-46.816-19.04 3.616-33.856 11.744-40.32 44.064l-26.144 302.144c0 30.368 36.928 57.216 68.224 57.216 31.36 0 65.152-28.096 65.152-58.464l-23.584-298.144z"  horiz-adv-x="1024" />

    
    <glyph glyph-name="jiantou2" unicode="&#59229;" d="M1111.68 871.808l462.144-429.056a78.72 78.72 0 0 0 0-117.44l-462.08-429.12a93.568 93.568 0 0 0-125.568 0 78.976 78.976 0 0 0 0 117.44l398.784 370.432-398.784 370.24a78.976 78.976 0 0 0 0 117.504 93.568 93.568 0 0 0 125.504 0zM1024 352a96 96 0 1 0-192 0 96 96 0 0 0 192 0zM544 448a96 96 0 1 0-0.064-191.936A96 96 0 0 0 544 448zM96 448a96 96 0 1 0-0.064-191.936A96 96 0 0 0 96 448z"  horiz-adv-x="1600" />

    
    <glyph glyph-name="delete" unicode="&#59033;" d="M512 864C246.4 864 32 649.6 32 384s214.4-480 480-480 480 214.4 480 480S777.6 864 512 864m201.6-681.6c-12.8-12.8-35.2-12.8-48 0L512 336 358.4 182.39999999999998c-12.8-12.8-35.2-12.8-48 0-12.8 12.8-12.8 35.2 0 48L464 384 310.4 537.6c-12.8 12.8-12.8 35.2 0 48 12.8 12.8 35.2 12.8 48 0L512 432l153.6 153.6c12.8 12.8 35.2 12.8 48 0 12.8-12.8 12.8-35.2 0-48L560 384l153.6-153.6c16-12.8 16-35.2 0-48m0 0z"  horiz-adv-x="1024" />

    
    <glyph glyph-name="wenjian3" unicode="&#59036;" d="M989.541-44.667H130.618s-68.409-10.642-68.409 80.572V773.211s1.521 82.091 85.132 82.091h301.003s36.486 7.601 66.89-39.525c28.884-45.607 45.607-74.491 45.607-74.491s10.642-12.161 34.965-12.161h387.655s68.409 7.601 68.409-68.409v-629.371s10.642-76.012-62.33-76.012z m-63.849 577.683c0 18.243-15.202 33.445-33.445 33.445H223.351c-19.763 0-34.965-15.203-34.965-33.445v-3.04c0-19.763 15.202-34.965 34.965-34.965h668.896c18.243 0 33.445 15.203 33.445 34.965v3.04z"  horiz-adv-x="1127" />

    
    <glyph glyph-name="yiquxiao" unicode="&#59374;" d="M519.01243906 863.93600437a479.26404938 479.26404938 0 1 1 0-958.52809781A479.26404938 479.26404938 0 0 1 519.01243906 863.93600437z m212.97780188-528.92473875H305.90664688a49.66068937 49.66068937 0 0 0-1e-8 99.32137875h426.01959844a49.66068937 49.66068937 0 1 0 0-99.32137875z"  horiz-adv-x="1030" />

    
    <glyph glyph-name="jiangbei1" unicode="&#59034;" d="M456.49999971 286.50000029h111.30000029v-111.30000029h-111.30000029v111.30000029zM597.79999971 133.79999999999995h-171.59999942v53.70000029c0 10.19999971 8.39999971 18.29999971 18.29999971 18.29999971h135c10.19999971 0 18.29999971-8.39999971 18.29999971-18.29999971v-53.70000029zM684.50000029-59.09999971000002h-345.00000058c-10.19999971 0-18.29999971 8.39999971-18.29999971 18.29999971v156.6c0 10.19999971 8.39999971 18.29999971 18.29999971 18.29999971h344.7c10.19999971 0 18.29999971-8.39999971 18.30000058-18.29999971v-156.6c0.29999971-10.19999971-8.1-18.29999971-18-18.29999971zM622.99999971-13.199999710000043h-221.99999942c-5.10000029 0-9 4.20000029-9 9v88.79999942c0 5.10000029 4.20000029 9 9 9h221.99999942c5.10000029 0 9-4.20000029 9-9v-88.49999971c0-5.10000029-3.89999971-9.29999971-9-9.29999971zM288.19999971 732.3v-250.2c-73.8 10.19999971-130.5 73.8-130.5 150.00000029V732.3h130.5m45.60000029 45.9H148.4c-20.40000029 0-36.60000029-16.49999971-36.60000029-36.60000029v-109.49999942c0-109.19999971 88.49999971-197.39999971 197.40000058-197.40000058h24.89999942l-0.29999971 343.50000029z m532.8-45.9v-95.69999971c0-77.4-56.7-141.90000029-130.5-153.9V732.3h130.5m9 45.9h-185.69999971v-343.50000029h20.39999942c111.6 0 201.89999971 90.29999971 201.90000058 201.90000058v104.99999942c0.29999971 20.09999971-16.2 36.60000029-36.60000029 36.60000029zM512 264.59999971c-143.1 0-258.90000029 115.80000029-258.90000029 258.90000029V809.7c0 9.60000029 7.80000029 17.39999971 17.40000058 17.39999971h482.99999942c9.60000029 0 17.39999971-7.80000029 17.40000058-17.39999971v-286.2c0-143.1-115.80000029-258.90000029-258.90000029-258.90000029zM754.1 431.09999971l-129.30000029 170.1L442.99999971 471.00000029l146.7-194.70000058c38.7 12.6 65.7 29.7 91.20000058 51.3 30.89999971 25.49999971 55.50000029 59.69999971 73.19999971 103.5zM521 677.4l27.60000029-55.50000029c1.19999971-2.7 3.89999971-4.5 6.89999942-5.09999942l61.50000058-9c7.49999971-1.19999971 10.50000029-10.50000029 5.09999942-15.60000058L577.7 548.99999971c-2.09999971-2.09999971-3.30000029-5.10000029-2.7-8.1l10.50000029-61.2c1.19999971-7.49999971-6.59999971-13.20000029-13.5-9.59999942L512.9 501l-59.10000029-31.20000029c-6.90000029-3.6-14.69999971 2.09999971-13.5 9.60000029l10.50000029 61.2c0.60000029 2.99999971-0.29999971 6.00000029-2.7 8.1l-44.39999971 43.2c-5.4 5.4-2.40000029 14.69999971 5.09999942 15.59999971l61.50000058 9c2.99999971 0.29999971 5.4 2.40000029 6.89999942 5.10000029l27.60000029 55.50000029c3.30000029 6.90000029 12.89999971 6.90000029 16.2 0.29999971z"  horiz-adv-x="1024" />

    
    <glyph glyph-name="gouwudai1" unicode="&#59032;" d="M822.57823245-86.22124843999995H201.42176755c-55.14940523 0-98.68840971 49.34420554-95.78580986 107.39621061l34.83120357 534.07845592c2.90259985 52.24680539 46.44160434 95.78580986 95.78580989 95.78580986h548.59145651c52.24680539 0 92.88321002-40.63640466 95.78580986-95.78580986L918.36404231 21.174962169999958c5.80520105-60.95460628-37.73380343-107.39621061-95.78580986-107.39621061zM512 447.85720614c113.20141165 0 203.18202047 92.88321002 203.18202047 203.18202181H308.81797953c0-110.29881183 92.88321002-203.18202047 203.18202047-203.18202181zM512 854.22124844c113.20141165 0 203.18202047-92.88321002 203.18202047-203.18202049H308.81797953c0 113.20141165 92.88321002 203.18202047 203.18202047 203.18202049z"  horiz-adv-x="1024" />

    
    <glyph glyph-name="gift-packs" unicode="&#59039;" d="M118.25 440.25h787.5v-393.75a112.5 112.5 0 0 0-112.5-112.5H230.75A112.5 112.5 0 0 0 118.25 46.5V440.25zM510.9875 588.4125L520.8875 552.75H483.875c-202.78125 0-309.375 36.45-309.375 124.3125C174.5 782.86875 221.58125 834 311.75 834c71.4375 0 120.9375-51.13125 157.33125-127.06875 14.2875-29.925 28.2375-69.35625 41.90625-118.51875zM418.34375 682.6875C390.5 740.85 354.725 777.75 311.75 777.75 253.7 777.75 230.75 752.83125 230.75 677.0625c0-37.35 69.01875-63.7875 215.38125-67.6125a567.5625 567.5625 0 0 1-27.7875 73.2375zM510.9875 588.4125L520.8875 552.75H483.875c-202.78125 0-309.375 36.45-309.375 124.3125C174.5 782.86875 221.58125 834 311.75 834c71.4375 0 120.9375-51.13125 157.33125-127.06875 14.2875-29.925 28.2375-69.35625 41.90625-118.51875z m-92.64375 69.75C390.5 697.03125 354.725 721.5 311.75 721.5c-58.05 0-81-16.59375-81-67.05 0-24.8625 69.01875-42.4125 215.38125-45A314.4375 314.4375 0 0 1 418.34375 658.21875zM521.9 588.4125L512 552.75h37.0125c202.78125 0 309.375 36.45 309.375 124.3125C858.3875 782.925 811.30625 834 721.1375 834c-71.4375 0-120.9375-51.13125-157.33125-127.06875-14.2875-29.925-28.2375-69.35625-41.90625-118.51875z m92.64375 69.75C642.3875 697.03125 678.1625 721.5 721.1375 721.5c58.05 0 81-16.59375 81-67.05 0-24.8625-69.01875-42.4125-215.38125-45 9.3375 19.6875 18.5625 36 27.7875 48.76875zM174.5 609h675q112.5 0 112.5-112.5T849.5 384H174.5Q62 384 62 496.5t112.5 112.5zM399.5 384h225v-450H399.5zM399.5 609c16.7625 43.25625 54.28125 64.85625 112.5 64.85625 58.21875 0 95.7375-21.6 112.5-64.85625v-225H399.5V609z"  horiz-adv-x="1024" />

    
    <glyph glyph-name="huangguan1" unicode="&#59040;" d="M513 44.4V766s-57.8-381.4-252.6-381.4c-151.6 0-195.8 149.4-195.8 149.4l98-489.6h350.4zM513 44.4V766s57.8-381.4 252.6-381.4c151.6 0 195.8 149.4 195.8 149.4l-98-489.6H513zM409.8 281.6c0-57 46.2-103 103-103 57 0 103 46.2 103 103 0 57-46.2 103-103 103s-103-46.2-103-103zM211.4 22.8h603c26.8 0 49-22.2 49-49s-22.2-49-49-49H211.4c-26.8 0-49 22.2-49 49s22.2 49 49 49zM13 498c0-34.2 27.6-61.8 61.8-61.8 34.2 0 61.8 27.6 61.8 61.8 0 34.2-27.6 61.8-61.8 61.8-34.2 0-61.8-27.6-61.8-61.8z m876.2 0c0-34.2 27.6-61.8 61.8-61.8s61.8 27.6 61.8 61.8c0 22-11.8 42.6-31 53.6s-42.8 11-61.8 0-30.8-31.4-30.8-53.6zM440.8 766c0-39.8 32.4-72.2 72.2-72.2 12.6 0 25.2 3.4 36 9.6 22.4 12.8 36 36.8 36 62.4 0 39.8-32.4 72.2-72.2 72.2-39.8 0.2-72-32-72-72zM513 384.6v-103H410l103 103z"  horiz-adv-x="1024" />

    
    <glyph glyph-name="jiangzhang1" unicode="&#59038;" d="M275.692308 896h472.615384v-78.769231a157.538462 157.538462 0 0 0-157.538461-157.538461H433.230769a157.538462 157.538462 0 0 0-157.538461 157.538461V896zM433.230769 896h157.538462v-236.307692H433.230769zM512 305.230769m-393.846154 0a393.846154 393.846154 0 1 1 787.692308 0 393.846154 393.846154 0 1 1-787.692308 0ZM532.795077 108.307692v337.447385H502.547692a195.702154 195.702154 0 0 0-40.644923-34.500923 200.861538 200.861538 0 0 0-47.261538-20.322462v-38.754461c31.665231 9.452308 58.131692 24.576 79.399384 46.316307V108.307692h38.754462z"  horiz-adv-x="1024" />

    
    <glyph glyph-name="xiaolian" unicode="&#59031;" d="M512.001311 832.511837q93.184239 0 174.592447-35.32809t142.336364-95.744245 96.256246-142.336364 35.32809-174.080446q0-93.184239-35.32809-174.592447t-96.256246-142.336364-142.336364-96.256246-174.592447-35.32809q-92.160236 0-174.080446 35.32809t-142.336364 96.256246-95.744245 142.336364-35.32809 174.592447q0 92.160236 35.32809 174.080446t95.744245 142.336364 142.336364 95.744245 174.080446 35.32809ZM674.817728 610.303269q-29.696076 0-50.68813-24.576063t-20.992054-60.416155q0-34.816089 20.992054-59.392152t50.68813-24.576063 50.176128 24.576063 20.480052 59.392152q0 35.840092-20.480052 60.416155t-50.176128 24.576063ZM343.040878 608.255263q-28.672073 0-49.152126-24.576063t-20.480052-59.392152q0-35.840092 20.480052-60.416155t49.152126-24.576063 48.640125 24.576063 19.968051 60.416155q0 34.816089-19.968051 59.392152t-48.640125 24.576063ZM765.953961 257.02236400000004q1.024003 2.048005 1.024003 7.168018t-1.536004 11.264029-6.144016 11.264029-12.800033 8.192021q-23.55206-28.672073-58.368149-51.200131-29.696076-19.45605-75.264193-35.32809t-107.008274-15.872041-104.448267 15.872041-72.704186 35.32809q-33.792087 22.528058-57.344147 51.200131-8.192021-2.048005-12.288031-7.168018t-6.144016-11.264029-2.048005-11.264029 1.024003-8.192021q1.024003-1.024003 0.512001-1.536004t0.512001-1.536004q9.216024-27.648071 32.768084-51.712132t57.344147-41.984107 76.288195-27.648071 89.600229-9.728025q93.184239 0 160.768412 33.792087t92.160236 89.088228q0 2.048005 1.024003 4.09601t3.072008 7.168018Z"  horiz-adv-x="1024" />

    
    <glyph glyph-name="hongbao" unicode="&#59035;" d="M788.3 834H214.325C123.515 834 103.4 807.135 103.4 705.5699999999999v-50.31c60.165-33.03 135.99-75.105 220.635-103.5 23.58 78.39 94.05 135.27 177.3 135.27 83.115 0 153.45-56.7 177.12-134.955 85.365 29.565 160.11 74.025 220.725 109.08v44.415C899.18 807.135 879.065 834 788.3 834zM501.29 301.33500000000004c-98.64 0-179.1 80.01-185.085 180.9-76.635 25.65-149.04 61.335-212.805 92.7v-531.27C103.4-57.89999999999998 123.515-66 214.325-66H788.3c90.765 0 110.88 8.1 110.88 109.71V579.9300000000001c-64.71-33.3-136.215-70.65-212.76-97.155-5.67-101.16-86.265-181.44-185.13-181.44zM548.09 623.985l-37.665-88.47c-3.105-7.425-5.4-13.14-6.84-17.1h-0.675L457.37 624.075H401.84l62.235-117.81H416.87v-33.525h57.6v-28.98h-57.6v-33.57h57.6V361.5h52.695V410.1h55.71v33.57H527.165V472.65h55.71v33.57H536.75l64.08 117.765h-52.695z"  horiz-adv-x="1024" />

    
    <glyph glyph-name="xinaixin-fubenbeifen" unicode="&#59037;" d="M1002.24000031 752.256c-119.87200031 117.82399969-312.89599969 121.92-438.84800062 10.14400031C437.408 874.14400031 244.41600031 870.07999969 124.544 752.256c-121.92-121.92-123.936-320.99200031-2.04799969-444.92800031l4.06399969-4.06399969 365.69599969-365.72800031a101.79199969 101.79199969 0 0 1 142.24000031-2.016l2.016 2.016L1002.24000031 303.264c121.92 121.92 123.936 320.99200031 4.06399969 442.87999969-2.016 4.09600031-2.016 4.09600031-4.06399969 6.11200031z"  horiz-adv-x="1160" />

    
    <glyph glyph-name="shangchuan" unicode="&#59211;" d="M864 341.333333a32 32 0 0 0 32-32v-234.666666a32 32 0 0 0-27.648-31.701334L864 42.666667H160a32 32 0 0 0-32 32v234.666666a32 32 0 1 0 64 0v-202.624l640-0.042666v202.666666a32 32 0 0 0 32 32z m-340.522667 380.074667l2.773334-2.56 193.194666-211.797333a23.210667 23.210667 0 0 0 5.888-15.616c0-10.837333-7.125333-19.882667-16.512-21.76l-3.626666-0.341334H576v-170.666666a21.333333 21.333333 0 0 0-21.333333-21.333334h-85.333334a21.333333 21.333333 0 0 0-21.333333 21.333334v170.666666H318.805333a18.986667 18.986667 0 0 0-11.818666 4.224l-2.432 2.261334a23.722667 23.722667 0 0 0-2.56 27.733333l2.56 3.498667 193.194666 211.797333c6.997333 7.68 17.834667 8.533333 25.728 2.56z"  horiz-adv-x="1024" />

    
    <glyph glyph-name="qr" unicode="&#59029;" d="M1.13410958 415.78758371l481.46511189 0L482.59922147 897.25153053 1.13410958 897.25153053 1.13410958 415.78758371zM121.50126137 776.88554382l240.7319734 0 0-240.7319734L121.50126137 536.15357042 121.50126137 776.88554382zM542.78279737 897.25153053l0-481.4651119 481.46511189 0L1024.24790813 897.25153053 542.78279737 897.25153053zM903.88075747 536.15357042L663.14878407 536.15357042 663.14878407 776.88554382l240.7319734 0L903.88075747 536.15357042zM181.68367218 596.33598123l120.3659867 0L302.04965888 716.70313301 181.68367218 716.70313301 181.68367218 596.33598123zM1.13410958-125.86110407000001l481.46511189 0L482.59922147 355.60400782 1.13410958 355.60400782 1.13410958-125.86110407000001zM121.50126137 235.23802111999998l240.7319734 0 0-240.73197341L121.50126137-5.493952290000038 121.50126137 235.23802111999998zM843.69834553 716.70313301L723.33119488 716.70313301l0-120.3659867 120.3659867 0L843.69718158 716.70313301zM542.78279737-125.86110407000001l120.3659867 0L663.14878407-5.495116230000008 542.78279737-5.495116230000008 542.78279737-125.86110407000001zM663.14878407 235.23802111999998l0-240.73197341 120.3659867 0L783.51477077 235.23802111999998 663.14878407 235.23802111999998zM903.88075747-5.495116230000008L783.51477077-5.495116230000008 783.51477077-125.86110407000001l240.73197341 0L1024.24674418 114.87203441999998 903.88075747 114.87203441999998 903.88075747-5.495116230000008zM903.88075747 235.23802111999998l120.36598671 0L1024.24674418 355.60400782 903.88075747 355.60400782 903.88075747 235.23802111999998zM542.78279737 355.60400782l0-120.3659867 120.3659867 0L663.14878407 355.60400782 542.78279737 355.60400782zM181.68367218 54.68845853000005l120.3659867 0L302.04965888 175.05444523000006 181.68367218 175.05444523000006 181.68367218 54.68845853000005z"  horiz-adv-x="1024" />

    
    <glyph glyph-name="kehuguanli1" unicode="&#59118;" d="M1049.07648969 176.47103061999996a361.66664906 361.66664906 0 0 1-97.02106782 97.02106782 505.15323187 505.15323187 0 0 1-131.35056843 65.10536062l-59.54022657 21.99233625 49.88505469 40.90038094A254.78925938 254.78925938 0 0 1 682.44815562 863.26218375Q672.52478469 863.99973188 662.33321375 863.99973188a252.44251594 252.44251594 0 0 1-172.8543975-68.12260219A254.78925938 254.78925938 0 0 1 514.82364313 401.35607719l50.08620374-40.90038188-59.60727656-22.05938531A508.43867156 508.43867156 0 0 1 374.01905188 273.49209843999995a363.20879437 363.20879437 0 0 1-97.49041688-97.02106781 213.68772844 213.68772844 0 0 1-38.08428844-118.07470688c0-37.61494031 11.13026719-67.049805 34.06130063-90.85248562 57.12643406-58.60152938 178.41953156-63.42911531 308.42910375-63.42911626h123.63984c146.77202344-0.60344813 285.43102031-1.13984625 347.98848843 63.09386719 22.99808344 23.53448156 34.12835062 53.63984438 34.12835063 91.05363469a214.55937656 214.55937656 0 0 1-37.88313938 118.00765688zM336.0688625 329.27753625a562.346715 562.346715 0 0 0 97.69156594 54.2432925 320.76626719 320.76626719 0 0 0-57.79693219 372.12641812A210.06703969 210.06703969 0 0 1 242.53438438 374.536155a395.59384969 395.59384969 0 0 1-101.37930563-50.22030469A288.31416187 288.31416187 0 0 1 63.84665375 247.14152531000002 179.76052781 179.76052781 0 0 1 32.06504656 147.90781312000001a115.39271437 115.39271437 0 0 1 31.98275625-83.67815624c26.14942406-26.81992219 65.17241063-40.22988281 111.43677657-46.93486407a227.96933719 227.96933719 0 0 0-3.82183875 41.97317813 279.46358719 279.46358719 0 0 0 49.14750656 154.88505 429.65515125 429.65515125 0 0 0 115.25861531 115.12451531zM1261.75847094 247.14152531000002a288.31416187 288.31416187 0 0 1-77.308425 77.10727594 395.59384969 395.59384969 0 0 1-101.37930469 50.28735375 210.06703969 210.06703969 0 0 1-133.36206281 380.90994281 320.76626719 320.76626719 0 0 0-57.79693219-372.12641906 562.346715 562.346715 0 0 0 97.69156594-54.24329156A429.65515125 429.65515125 0 0 0 1104.8619275 214.08597094000004a279.46358719 279.46358719 0 0 0 49.1475075-154.88505 227.96933719 227.96933719 0 0 0-3.82183969-41.97317719c46.26436594 6.70498031 85.2873525 20.11494187 111.43677657 46.93486312a115.39271437 115.39271437 0 0 1 31.98275718 83.67815719A179.76052781 179.76052781 0 0 1 1261.75847094 247.14152531000002z"  horiz-adv-x="1345" />

    
    <glyph glyph-name="shijian1" unicode="&#60052;" d="M512.16125001 864C246.9171875 864 32 649.0546875 32 384.0346875s214.9453125-479.964375 480.16124999-479.964375 480.16124999 214.8328125 480.16125001 479.923125S777.209375 863.9578125 512.16125001 863.9578125z m193.82437499-564.05625001H478.05875001c-1.7540625 0-2.7225 1.4025-4.47656251 1.59937501-0.631875 0-0.954375-0.800625-1.755-0.800625-5.61374999 0.1546875-9.823125 4.4775-14.7215625 6.8775-4.209375 2.2453125-8.9671875 2.7225-12.1678125 5.7675-2.55374999 2.5546875-2.7225 6.568125-4.6453125 9.8240625-3.3675 5.7675-8.1675 10.8759375-8.1675 17.7665625 0 0.800625 0.954375 1.2778125 0.954375 2.0775s-0.954375 1.6003125-0.954375 2.55375V657.5165625c0 24.6440625 17.92125001 44.656875 39.856875 44.656875s39.856875-20.0128125 39.85687501-44.656875v-275.769375h194.14687499c25.44375001 0 46.0875-18.24375001 46.0875-40.8103125s-20.64375001-40.9940625-46.0875-40.9940625z"  horiz-adv-x="1024" />

    
    <glyph glyph-name="duihao-copy" unicode="&#59028;" d="M511.11305188 855.1305225c-259.15000875 0-469.27599563-210.12598687-469.27599469-469.27599563s210.12598687-469.27599563 469.27599469-469.27599468 469.27599563 210.12598687 469.27599562 469.27599469-210.12598687 469.27599563-469.27599563 469.27599562zM780.26138094 507.608265L476.76398469 204.11086875c-14.02990125-14.02990125-35.31664687-16.12632281-51.60423375-6.61179281-3.06400125 1.77389531-5.96673938 4.03158094-8.38568719 6.61179281L241.96472375 378.92020875000003c-16.61011219 16.61011219-16.61011219 43.54107188 0 59.98992094 16.61011219 16.61011219 43.54107188 16.61011219 59.98992094 0l144.65311594-144.65311688 273.50243625 273.50243625c16.61011219 16.61011219 43.54107188 16.61011219 59.98992093 0 16.77137531-16.61011219 16.77137531-43.54107188 0.16126313-60.15118406z"  horiz-adv-x="1024" />

    
    <glyph glyph-name="shipinhao" unicode="&#59013;" d="M140.71039187 904.12698413c106.15994413 0 251.82251886-178.73454527 451.82147657-540.66186769C792.09851327 724.31165562 937.47738311 902.50580927 1043.47520914 902.50580927c25.27682032 0 75.3441087-24.8715266 92.75823035-45.46044952 42.74498133-50.4725821 57.38959543-136.03009321 37.28702578-305.59149004-41.33996292-348.84984381-128.43759035-614.88466387-232.38192864-670.35586946-83.00416102-44.29860775-192.55506286 81.5991426-349.48480406 374.0320955-156.45689905-291.27111111-265.73760508-416.61495975-348.60666717-372.39741054-102.90408432 54.91730387-189.27218286 316.21018717-231.12551823 659.92630958l-1.25641041 10.42955886C-9.4374339 722.64995048 5.22069029 808.2074626 47.93865143 858.6800447 65.36628317 879.26896762 115.43357156 904.12698413 140.71039187 904.12698413zM1043.47520914 848.46664229c-77.77587098 0-221.03370362-178.39680102-414.2507459-530.44846527l-4.9851134-9.07857981 7.91673803-14.92832c70.84534857-132.94986057 131.61239162-230.47704787 181.92285664-292.25732673l3.40446781-4.16101588c48.32452571-58.33528076 81.86933841-77.54620444 98.2161859-68.81887898 79.73479111 42.55584406 161.69869816 288.90689727 201.76874057 609.33213968l2.39123302 19.72429613c18.50841498 156.1056447 6.28205308 227.50489397-24.85801651 264.30556647-7.48442514 8.83540419-42.69094197 26.31707429-51.52634616 26.31707429zM140.71039187 850.08781714c-8.83540419 0-44.04192102-17.4816701-51.51283606-26.31707428C58.53032838 787.53748114 46.20939886 717.799936 63.47491251 566.70642387l0.8511167-7.25475758c39.12435708-329.99017448 122.80400762-585.62245486 204.17348368-629.04292572 16.34684851-8.72732546 49.87815111 10.47008914 98.20267682 68.81887899l3.41797689 4.16101587C420.40361143 65.16891326999996 481.18416457 162.69610057 552.02951314 295.64596215999995l7.93024813 14.9148099-4.99862349 9.09208991C361.77111568 671.71803632 218.49977295 850.08781714 140.71039187 850.08781714z"  horiz-adv-x="1183" />

    
    <glyph glyph-name="x" unicode="&#59339;" d="M597.80246203 384l386.11107916 386.11107916c21.4506155 21.4506155 21.4506155 64.35184654 0 85.80246203-21.4506155 21.4506155-64.35184654 21.4506155-85.80246203 0L512 469.80246203 125.88892084 855.91354119c-21.4506155 21.4506155-64.35184654 21.4506155-85.80246203 0s-21.4506155-64.35184654 0-85.80246203l386.11107916-386.11107916-386.11107916-386.11107916c-21.4506155-21.4506155-21.4506155-64.35184654 0-85.80246203 14.30040978-14.30040978 28.60082124-14.30040978 42.901231-14.30040979s28.60082124 7.15020573 42.90123103 14.30040979l386.11107916 386.11107916 386.11107916-386.11107916c14.30040978-14.30040978 28.60082124-14.30040978 42.90123103-14.30040979s28.60082124 7.15020573 42.901231 14.30040979c21.4506155 21.4506155 21.4506155 64.35184654 0 85.80246203L597.80246203 384z"  horiz-adv-x="1024" />

    
    <glyph glyph-name="bofang1" unicode="&#59022;" d="M512 869.45185223c268.11505778 0 485.45185223-217.33679445 485.45185223-485.45185223s-217.33679445-485.45185223-485.45185223-485.45185223S26.54814777 115.88494221999997 26.54814777 384 243.88494222 869.45185223 512 869.45185223z m-66.60399445-323.55366002c-29.70965333 0-53.78806557-24.07841223-53.78806443-53.78806442v-230.24981334a53.78806557 53.78806557 0 0 1 81.07045888-46.31210666l195.29728 115.10063331a53.78806557 53.78806557 0 0 1 0 92.6727589L472.6784 538.47077888c-8.2526811 4.8545189-17.71899221 7.42741333-27.28239445 7.42741333z"  horiz-adv-x="1024" />

    
    <glyph glyph-name="kucunkantai-guigexinghao1" unicode="&#59023;" d="M46.4 895.2v-573.6h932V895.2H46.4z m824.8-466.4H154.4V787.2h716.8v-358.4zM46.4 196h932V88H46.4V196z m0-215.2h932v-107.2H46.4v107.2zM226.4 661.6h286.4v-107.2H226.4V661.6z"  horiz-adv-x="1024" />

    
    <glyph glyph-name="xiazai1" unicode="&#59018;" d="M896 896H128C57.6 896 0 838.4 0 768v-768c0-70.4 57.6-128 128-128h768c70.4 0 128 57.6 128 128V768c0 70.4-57.6 128-128 128zM512 101.6L229.6 384h212V666.4h140.8V384h212L512 101.6z"  horiz-adv-x="1024" />

    
    <glyph glyph-name="wenhao11" unicode="&#59025;" d="M513.6 895.2C237.6 895.2 13.6 666.4 13.6 384.8c0-281.6 224-510.4 500.8-510.4 276 0 500.8 228.8 500.8 510.4C1014.4 666.4 790.4 895.2 513.6 895.2z m58.4-802.4H440.8V216h131.2v-123.2zM624.8 384c-49.6-33.6-72-66.4-66.4-98.4V264H451.2v29.6c-1.6 55.2 21.6 100 69.6 133.6 44.8 35.2 65.6 68 64 96-3.2 37.6-24 57.6-61.6 61.6-49.6 0-80.8-32.8-93.6-99.2l-120 26.4c21.6 120.8 99.2 180 232 176 110.4-5.6 169.6-55.2 179.2-149.6 4-56.8-28-108-96-154.4z"  horiz-adv-x="1024" />

    
    <glyph glyph-name="bianji21" unicode="&#59026;" d="M834.4 895.2c51.2 0 100-20 136-56s56-84.8 56-136V64c0-51.2-20-99.2-56-135.2-36-36-84.8-56-135.2-56h-640c-51.2 0-100 20-136 56s-56 84.8-56 136V703.2c0 51.2 20 100 56 136s84.8 56 136 56h639.2zM367.2 128h339.2c19.2 0 36 16 36 36 0 19.2-16 36-36 36H428.8l241.6 241.6-107.2 106.4-303.2-310.4v-110.4l107.2 0.8z m393.6 408.8v0.8c5.6 5.6 8.8 12 8.8 20 0 7.2-2.4 14.4-8 20l-64.8 64.8c-5.6 5.6-12.8 8-20 8-7.2 0-14.4-3.2-20-8l-51.2-51.2 107.2-108.8 48 54.4z"  horiz-adv-x="1026" />

    
    <glyph glyph-name="daochu1" unicode="&#59056;" d="M1096.704 749.568H635.904L489.472 896H52.224c-28.672 0-52.224-23.552-52.224-52.224v-919.552c0-28.672 23.552-52.224 52.224-52.224h1044.48c28.672 0 52.224 23.552 52.224 52.224V697.344c0 28.672-23.552 52.224-52.224 52.224zM830.464 326.656L713.728 191.488 595.968 57.344c-9.216-11.264-32.768-11.264-43.008 0L435.2 191.488 318.464 326.656c-9.216 11.264 2.048 24.576 21.504 24.576H482.304v133.12c0 32.768 26.624 59.392 59.392 59.392h67.584c32.768 0 59.392-26.624 59.392-59.392v-133.12H809.984c18.432 0 30.72-13.312 20.48-24.576z"  horiz-adv-x="1148" />

    
    <glyph glyph-name="biaoge" unicode="&#59030;" d="M0 768.384A127.7184 127.7184 0 0 0 127.616 896h768.768A127.7184 127.7184 0 0 0 1024 768.384v-768.768A127.6928 127.6928 0 0 0 896.384-128H127.616A127.6928 127.6928 0 0 0 0-0.38400000000001455V768.384zM448 512h384v128h-384v-128z m0-192h384v128h-384v-128z m0-192h384v128h-384v-128zM160 512h192v128h-192v-128z m0-192h192v128h-192v-128z m0-192h192v128h-192v-128z"  horiz-adv-x="1024" />

    
    <glyph glyph-name="zhexiantu" unicode="&#59364;" d="M843.3 895.5H180.7C81.4 895.5 0.5 814.6 0.5 715.3v-662.5c0-99.4 80.9-180.2 180.2-180.2h662.5c99.4 0 180.2 80.9 180.2 180.2V715.3C1023.5 814.6 942.6 895.5 843.3 895.5z m8.3-358.6l-159-277.5c-7.3-12.8-19.9-21.7-34.3-24.3-14.5-2.7-29.4 1.2-40.7 10.5L410.4 415.5 257.8 179.1c-9.6-14.8-25.6-22.9-42.1-22.9-9.3 0-18.7 2.6-27.1 8-23.2 15-29.9 45.9-14.9 69.1l183 283.5c7.7 12 20.2 20.1 34.3 22.3 14.1 2.2 28.4-1.7 39.4-10.7l204.8-168 129.6 226.2c13.7 24 44.3 32.3 68.2 18.5 24.1-13.7 32.3-44.3 18.6-68.2z"  horiz-adv-x="1024" />

    
    <glyph glyph-name="qudaoguanli" unicode="&#59014;" d="M377.263158 518.736842a53.894737 53.894737 0 0 0-53.894737 53.894737V842.105263a53.894737 53.894737 0 0 0 53.894737 53.894737h323.368421a53.894737 53.894737 0 0 0 53.894737-53.894737v-269.473684a53.894737 53.894737 0 0 0-53.894737-53.894737h-107.789474v-107.789474h269.473684a53.894737 53.894737 0 0 0 53.894737-53.894736v-107.789474h107.789474a53.894737 53.894737 0 0 0 53.894737-53.894737v-269.473684a53.894737 53.894737 0 0 0-53.894737-53.894737h-323.368421a53.894737 53.894737 0 0 0-53.894737 53.894737v269.473684a53.894737 53.894737 0 0 0 53.894737 53.894737h107.789474v53.894737H269.473684v-53.894737h107.789474a53.894737 53.894737 0 0 0 53.894737-53.894737v-269.473684a53.894737 53.894737 0 0 0-53.894737-53.894737H53.894737a53.894737 53.894737 0 0 0-53.894737 53.894737v269.473684a53.894737 53.894737 0 0 0 53.894737 53.894737h107.789474v107.789474a53.894737 53.894737 0 0 0 53.894736 53.894736h269.473685V518.736842H377.263158z"  horiz-adv-x="1077" />

    
    <glyph glyph-name="yingxiaoneirong" unicode="&#59015;" d="M1059.612444 896H77.255111C35.612444 893.610667 2.275556 861.127111 0 820.337778v-872.220445c2.104889-40.618667 35.271111-73.443556 76.8-76.117333h988.444444A81.635556 81.635556 0 0 1 1137.777778-55.580444V822.670222A81.180444 81.180444 0 0 1 1059.612444 896zM284.444444 42.666667c-31.402667 0-56.718222 20.878222-56.888888 46.762666V337.123556C227.555556 363.121778 253.041778 384 284.444444 384c31.573333 0 56.888889-21.048889 56.888889-46.876444v-247.580445c0-25.998222-25.486222-46.876444-56.888889-46.876444z m284.444445 0c-31.402667 0-56.888889 20.764444-56.888889 46.478222V621.795556c0 25.884444 25.486222 46.648889 56.888889 46.648888 31.573333 0 56.888889-20.878222 56.888889-46.648888v-532.48c0-25.884444-25.486222-46.648889-56.888889-46.648889z m341.333333 45.681777c0-25.372444-25.486222-45.681778-56.888889-45.681777s-56.718222 20.309333-56.888889 45.681777V452.096c0 25.372444 25.486222 45.681778 56.888889 45.681778 31.573333 0 56.888889-20.48 56.888889-45.681778v-363.747556z"  horiz-adv-x="1137" />

    
    <glyph glyph-name="zhijian" unicode="&#59016;" d="M952.601833 749.381818s-144.616727 50.594909-232.680728 76.427637C578.516015 867.281455 487.007651 896 487.007651 896S394.428742 867.281455 253.116742 825.809455C165.052742 799.976727 21.692742 749.381818 21.692742 749.381818s-14.336-236.078545 18.059636-468.759273c32.395636-232.727273 447.301818-408.576 447.301818-408.576s415.232 175.895273 447.488 408.576C966.937833 513.256727 952.601833 749.335273 952.601833 749.335273zM449.352378 197.818182l-75.357091 71.493818 0.372364 0.325818L254.420015 383.348364l74.938181 71.121454 119.994182-113.710545L691.109469 570.181818 766.420015 498.688 449.352378 197.818182z"  horiz-adv-x="1024" />

    
    </font>
</defs>
</svg>
